<svg id="Layer_1" xmlns="http://www.w3.org/2000/svg" viewBox="-5 10 90 60"><style>.st1{display:inline}</style><g id="Activity-2"><g id="Page-1" transform="translate(16 42)"><path id="Fill-1" d="M41.1 8.9L19.8.1c-.4-.1-1.1-.1-1.4.1L4.7 8.9l-.1.1c-.4.2-.3.6-.3 1v17.5c0 .5.3.9.7 1.1l22.5 10c.2.1.3.1.5.1.1 0 .3 0 .4-.1 0 0 .1 0 .1-.1.1 0 .1 0 .2-.1h.1l12.5-10c.3-.2.5-.6.5-1V10c0-.4-.3-.9-.7-1.1zM19.4 2.7l18.7 7.7-10.2 8.2L8.2 9.9l11.2-7.2zM6.8 12l20 8.9v14.8l-20-8.9V12zm32.5 15l-10 8V20.7l10-8V27z"/><path id="Fill-2" d="M-1.9-41.2h-12.5c-.7 0-1.3.6-1.3 1.3v77.5c0 .7.6 1.3 1.3 1.3h7.5c3.4 0 6.3-2.8 6.3-6.3V-40c-.1-.6-.6-1.2-1.3-1.2zm-1.3 73.8c0 2.1-1.7 3.8-3.8 3.8h-6.3v-3.8h5v-2.5h-5v-2.5h2.5v-2.5h-2.5v-2.5h2.5v-2.5h-2.5v-2.5h2.5v-2.5h-2.5v-2.5h5v-2.5h-5V7.6h2.5V5.1h-2.5V2.6h2.5V.1h-2.5v-2.5h2.5v-2.5h-2.5v-2.5h2.5v-2.5h-2.5v-2.5h5v-2.5h-5v-2.5h2.5v-2.5h-2.5v-2.5h2.5v-2.5h-2.5v-2.5h2.5v-2.5h-2.5v-2.5h2.5v-2.5h-2.5v-3.8h10v71.3z"/><path id="Fill-3" d="M5.3 5h.2c.5 0 .9-.2 1.1-.5l13.8-22.3L34.5 4.5c.2.4.6.6 1.1.6h.2c.5-.1.9-.5 1-1l1.3-7.5c0-.3 0-.6-.2-.8L25.5-25.4c0-.3.1-.5.1-.8 0-1.3-.5-2.4-1.3-3.3v-8c0-2.1-1.7-3.8-3.8-3.8-2.1 0-3.8 1.7-3.8 3.8v8c-.8.9-1.2 2-1.2 3.3 0 .3 0 .5.1.8L3.2-4.3c-.1.2-.2.5-.1.8L4.3 4c.1.5.5.9 1 1zm15.3-33.7c1.4 0 2.5 1.1 2.5 2.5s-1.1 2.5-2.5 2.5-2.5-1.1-2.5-2.5 1.1-2.5 2.5-2.5zM35.5-3.5L34.9.3 21.9-20l1-1.3c.5-1.3.9-.9 1.3-1.2l11.3 19zM20.6-38.7c.7 0 1.3.6 1.3 1.3v6.4c-.4-.1-.8-.2-1.3-.2-.4 0-.8.1-1.3.2v-6.4c0-.7.6-1.3 1.3-1.3zm-3.6 16c.7.7 1.6 1.3 2.7 1.4L6.3.3l-.7-3.8L17-22.7z"/><path id="Fill-4" d="M61.2-33.1c-2.1-3.3-5.3-5.8-10.1-8-.5-.2-1.1-.1-1.5.4-.4.5-.4 1.1 0 1.5 1.2 1.5.9 3.6.4 5-.4 1.2-1 2.4-1.6 3.6-.4.8-.8 1.5-1.1 2.3-.5 1-1 2.4-1 4 0 2.7 1.5 5.3 3 7.2L48.1-1.3v.1l1.1 35c.1 2.8 2.3 5 5.1 5s5-2.2 5.1-5l1.1-35v-.1l-1.2-15.3c1.3-.6 2.4-1.8 3.1-3.2 2-4 1.5-9.1-1.2-13.3zm-8.8-.3c.4-1.4.6-2.8.5-4 2.8 1.6 4.8 3.5 6.3 5.7.7 1.1 1.3 2.3 1.6 3.6l-.2.1-2.9-2.9c-.5-.5-1.3-.5-1.8 0L53.1-28 51-30.1c.5-1 1-2.1 1.4-3.3zm4.5 67.2c0 1.4-1.2 2.5-2.6 2.5-1.4 0-2.6-1.1-2.6-2.5l-1.1-35 1.2-15H57l1.2 15-1.3 35zM60.3-21c-.5 1.1-1.4 2.3-2.4 2.3h-6.6c-1.1-1.3-2.4-3.6-2.4-5.6 0-.8.2-1.8.8-3 .1-.2.2-.3.2-.5l2.4 2.4c.5.5 1.3.5 1.8 0l2.9-2.9 2.9 2.9c.2.2.6.4.9.4.2 0 .4-.1.6-.2-.2 1.6-.5 3-1.1 4.2z"/></g></g></svg>