<svg xmlns="http://www.w3.org/2000/svg" width="22" height="16"><g fill="none" fill-rule="evenodd"><path d="M-1-4h24v24H-1z"/><g fill="currentColor" fill-rule="nonzero"><path d="M9.823 1.677a.781.781 0 0 0-.784-.002l-5.32 3.04H.787A.785.785 0 0 0 0 5.5v4.714c0 .435.352.786.786.786H3.72l5.319 3.04a.785.785 0 0 0 1.175-.683v-11a.787.787 0 0 0-.391-.68zm-1.18 10.326L4.318 9.53a.796.796 0 0 0-.39-.102H1.572V6.286H3.93a.788.788 0 0 0 .39-.104l4.324-2.47v8.29zm3.437-7.115a.785.785 0 0 0-.12 1.105c.813 1.01.813 2.718 0 3.729a.785.785 0 1 0 1.224.985c1.285-1.598 1.285-4.102 0-5.7a.788.788 0 0 0-1.104-.12zm3.142-2.358a.785.785 0 0 0-.12 1.106c1.872 2.328 1.872 6.115 0 8.443a.785.785 0 1 0 1.225.985c2.309-2.87 2.309-7.543 0-10.414a.788.788 0 0 0-1.105-.12z"/><path d="M18.365.174a.785.785 0 0 0-.12 1.104c2.917 3.628 2.917 9.53 0 13.158a.785.785 0 1 0 1.225.985c3.353-4.171 3.353-10.957 0-15.128a.787.787 0 0 0-1.105-.12z"/></g></g></svg>