<svg xmlns="http://www.w3.org/2000/svg" width="146" height="146" viewBox="0 0 146 146"><path d="M0,0 L146,0 L146,146 L0,146 L0,0 Z M78.8652966,1.235 C76.9302966,1.08 74.9752966,1 73.0002966,1 C47.1922966,1 24.5552966,14.579 11.8432966,34.983 C10.6200738,36.537181 9.41333949,38.1042688 8.22329665,39.684 C2.89629665,46.743 0.445296649,58.721 1.10529665,69.071 C1.03529665,70.372 1.00029665,71.682 1.00029665,73 C1.00029665,111.593 31.3662966,143.094 69.5052966,144.917 C70.2362825,144.988839 70.9711779,145.01289 71.7052966,144.989 C72.1362966,144.996 72.5672966,145 73.0002966,145 C96.6312966,145 117.604297,133.615 130.731297,116.032 C139.560297,106.265 144.237297,97.407 144.763297,89.458 C145.033297,85.378 145.072297,81.271 144.880297,77.178 C144.960297,75.795 145.000297,74.402 145.000297,73 C145.000297,56.732 139.605297,41.725 130.506297,29.669 C119.882297,13.274 103.471297,1.851 81.4422966,1 L78.8652966,1.235 Z"/></svg>
