<svg width="24" height="24" viewBox="0 0 24 24" xmlns="http://www.w3.org/2000/svg"><title>bin</title><path d="M7.526 18.316h8.423c-.002 0-.002-8.25-.002-10.948h-8.42v10.948zm10.106 0c0 .93-.756 1.684-1.683 1.684H7.525c-.93 0-1.683-.752-1.683-1.684V7.368A.84.84 0 0 1 5 6.526a.84.84 0 0 1 .843-.842h4.21a1.684 1.684 0 1 1 3.368 0h4.21a.84.84 0 0 1 .843.842.84.84 0 0 1-.842.842v10.948zm-5.053-8.423c0-.464.374-.84.842-.84a.84.84 0 0 1 .842.84v5.899c0 .463-.374.84-.842.84a.84.84 0 0 1-.842-.84v-5.9zm-3.368 0c0-.464.373-.84.842-.84a.84.84 0 0 1 .842.84v5.899c0 .463-.374.84-.842.84a.84.84 0 0 1-.842-.84v-5.9z" fill-rule="nonzero" fill="currentColor"/></svg>
