<svg width="24" height="24" viewBox="0 0 24 24" xmlns="http://www.w3.org/2000/svg"><title>book</title><g fill="none" fill-rule="evenodd"><path d="M0 0h24v24H0z"/><path d="M7.767 18.27c-1.697 0-3.358 1.106-3.395 1.133a.865.865 0 0 1-1.372-.7V6.595c0-.185.059-.364.168-.513C3.382 5.791 4.858 4 7.757 4c1.4 0 2.77.622 3.892 1.931C12.753 4.643 14.139 4 15.54 4c2.841 0 4.374 1.79 4.588 2.082.11.149.168.328.168.513v12.108a.865.865 0 0 1-1.372.7c-.037-.027-1.562-1.133-3.395-1.133-1.824 0-3.394 1.148-3.414 1.16a.849.849 0 0 1-.467.14.849.849 0 0 1-.467-.14c-.02-.012-1.53-1.16-3.415-1.16zM4.73 6.932v10.292a7.42 7.42 0 0 1 3.037-.683c1.068.012 2.042.283 3.017.725V7.689s-1.02-1.96-3.027-1.96C5.87 5.73 4.88 6.77 4.73 6.933zm13.838 0c-.151-.163-1.17-1.202-3.027-1.202-1.969 0-3.027 1.959-3.027 1.959v9.577c.974-.442 1.948-.713 3.016-.725a7.42 7.42 0 0 1 3.038.683V6.932z" fill="currentColor" fill-rule="nonzero"/></g></svg>