<svg width="24" height="24" viewBox="0 0 24 24" xmlns="http://www.w3.org/2000/svg"><title>all-books</title><g fill="none" fill-rule="evenodd"><path d="M0 0h24v24H0z"/><path d="M0 0h24v24H0z"/><path d="M22.2 6H21v-.6a.6.6 0 0 0-.6-.6h-2.21a7.966 7.966 0 0 1-2.52-.409 3.722 3.722 0 0 0-1.176-.191c-.84 0-1.636.28-2.288.79A7.01 7.01 0 0 0 6 1.2a.6.6 0 0 0-.6.6v3H3.6a.6.6 0 0 0-.6.6V6H1.8a.6.6 0 0 0-.6.6v15a.6.6 0 0 0 .6.6h8.4a.6.6 0 0 0 .6.6h2.4a.6.6 0 0 0 .6-.6h8.4a.6.6 0 0 0 .6-.6v-15a.6.6 0 0 0-.6-.6zm-9.6.248l.11-.11a2.507 2.507 0 0 1 1.784-.738c.272 0 .54.044.797.13.936.312 1.912.47 2.9.47H19.8v12.6h-1.61a7.966 7.966 0 0 1-2.52-.409 3.722 3.722 0 0 0-3.07.325V6.248zm-6-3.816a5.805 5.805 0 0 1 4.8 3.684v11.448a7.016 7.016 0 0 0-4.8-2.538V2.432zM4.2 6h1.2v9.6a.6.6 0 0 0 .6.6c1.647 0 3.185.708 4.26 1.876a3.773 3.773 0 0 0-1.93.115 7.94 7.94 0 0 1-2.52.409H4.2V6zm17.4 15h-8.4a.6.6 0 0 0-.6.6h-1.2a.6.6 0 0 0-.6-.6H2.4V7.2H3v12a.6.6 0 0 0 .6.6h2.21c.987 0 1.963-.158 2.9-.47a2.508 2.508 0 0 1 2.58.61l.285.284c.23.23.618.23.849 0l.285-.285a2.51 2.51 0 0 1 1.785-.739c.271 0 .54.044.797.13.936.312 1.912.47 2.9.47H20.4a.6.6 0 0 0 .6-.6v-12h.6V21z" fill="currentColor"/></g></svg>
