<svg width="24" height="24" viewBox="0 0 24 24" xmlns="http://www.w3.org/2000/svg"><title>book-pencil</title><path d="M7.65 10.47a.94.94 0 0 1-.944-.94V5.764H3.88l.001 13.18 7.534-.004c-.002 0 0-5.415.002-8.47H7.65zm.938-4.705v2.823h2.83c0-.1-2.83-2.823-2.83-2.823zm8.471 10.773L18 18.103l.941-1.554v-.902H17.06v.89zm1.882-2.773v-9.88c0-.004-1.884-.002-1.884-.002.002 0 .003 5.811.003 9.882h1.881zM17.057 2h1.886c1.039 0 1.88.842 1.88 1.884V17.06l-1.855 3.099c-.535.892-1.403.89-1.936 0l-1.856-3.1V3.885c0-1.04.846-1.884 1.88-1.884zM2 5.76a1.88 1.88 0 0 1 1.88-1.878h5.178c.26 0 .624.153.806.334l3.096 3.097c.185.184.334.541.334.803v10.827c0 1.038-.84 1.88-1.878 1.88H3.878A1.877 1.877 0 0 1 2 18.947V5.76z" fill-rule="nonzero" fill="currentColor"/></svg>