<svg width="24" height="24" viewBox="0 0 24 24" xmlns="http://www.w3.org/2000/svg"><title>cancel</title><g fill="none" fill-rule="evenodd"><path d="M0 0h24v24H0z"/><path d="M0 0h24v24H0z"/><path d="M6.323 6.318a7.928 7.928 0 1 0 11.21 0 7.936 7.936 0 0 0-11.21 0zm10.052 10.051a6.287 6.287 0 1 1 1.846-4.445 6.246 6.246 0 0 1-1.846 4.445z" fill="currentColor" fill-rule="nonzero"/><path d="M14.902 8.952a.82.82 0 0 0-1.161 0l-1.812 1.81-1.813-1.812a.821.821 0 0 0-1.16 1.16l1.812 1.814-1.813 1.813a.821.821 0 1 0 1.161 1.161l1.813-1.813 1.814 1.813a.821.821 0 0 0 1.16-1.16l-1.813-1.814 1.814-1.813a.82.82 0 0 0-.002-1.16z" fill="currentColor" fill-rule="nonzero"/></g></svg>
