<svg width="24" height="24" viewBox="0 0 24 24" xmlns="http://www.w3.org/2000/svg"><title>code</title><path d="M1.287 11.053l3.902-3.89a.976.976 0 0 1 1.378 1.382l-3.213 3.211 3.215 3.214a.976.976 0 1 1-1.382 1.377l-3.902-3.915a.976.976 0 0 1 .002-1.38zm20.89 0c.381.38.382.998.002 1.38l-3.903 3.914a.976.976 0 1 1-1.382-1.377l3.216-3.214-3.213-3.211a.976.976 0 1 1 1.377-1.382l3.903 3.89zm-7.542-7.866l-3.902 17.561a.976.976 0 1 1-1.905-.423l3.903-17.56a.976.976 0 0 1 1.904.422z" fill-rule="nonzero" fill="currentColor"/></svg>