<svg xmlns="http://www.w3.org/2000/svg" width="30" height="28"><g fill="none" fill-rule="evenodd"><path fill="#fff" fill-rule="nonzero" d="M18.507 2.394l10.78 19.155c1.782 3.168.034 6.163-3.597 6.163H4.304c-3.635 0-5.383-2.989-3.599-6.162L11.474 2.394c1.793-3.19 5.235-3.194 7.033 0zm-2.615 1.471c-.65-1.154-1.3-.93-1.803 0L3.32 23.02c-.511 1.004-.357 1.692.984 1.692H25.69c.982 0 1.64-.523.982-1.692L15.892 3.865zm-.903 19.347a1.5 1.5 0 1 1 0-3 1.5 1.5 0 0 1 0 3zm-1.5-13.495a1.5 1.5 0 1 1 3 0v7.49c0 .832-.665 1.505-1.5 1.505-.828 0-1.5-.673-1.5-1.504V9.717z"/><path d="M-5-6h40v40H-5z"/></g></svg>