<svg width="24" height="24" viewBox="0 0 24 24" xmlns="http://www.w3.org/2000/svg"><title>download</title><g fill="none" fill-rule="evenodd"><path d="M0 0h24v24H0z"/><path d="M10.708 13.166l.895.895v-9.26a.8.8 0 0 1 1.6 0v9.26l.895-.895a.8.8 0 1 1 1.131 1.132l-2.258 2.259a.797.797 0 0 1-.567.236.79.79 0 0 1-.567-.234l-2.26-2.261a.8.8 0 1 1 1.131-1.132zM17.2 18.4v-2.402a.8.8 0 1 1 1.6 0V18.4a1.6 1.6 0 0 1-1.596 1.6H7.596A1.596 1.596 0 0 1 6 18.4v-2.402a.8.8 0 1 1 1.6 0L7.596 18.4H17.2z" fill-rule="nonzero" fill="currentColor"/></g></svg>