<svg id="Layer_1" xmlns="http://www.w3.org/2000/svg" viewBox="0 0 80 80"><style>.st2{display:inline}</style><g id="ZZ-Elements"><g id="Elements_x2F_Category-Cards" transform="translate(-62 -1071)"><g id="Enrivonments" transform="translate(46 1029)"><g id="Category---Activity-Copy"><g id="Group" transform="translate(16 42)"><path id="Rectangle-7" fill="none" d="M0 0h80v80H0z"/><g id="Page-1"><path id="Fill-1" d="M16.8 66.7h59.8L46.7 4.4 16.8 66.7zm61.9 2.6h-64c-.5 0-.9-.2-1.1-.6-.2-.4-.3-.9-.1-1.3L45.5.7c.2-.4.7-.7 1.2-.7s1 .3 1.2.8l32 66.7c.2.4.2.9-.1 1.3-.3.3-.7.5-1.1.5z"/><path id="Fill-2" d="M42.7 30.7c.5 0 1 .3 1.2.8l2.8 6.5 2.8-6.5c.3-.7 1.1-1 1.7-.7l10.1 4.1L46.7 4.4 32.1 34.9l10.1-4.1c.1-.1.3-.1.5-.1m4 12c-.5 0-1-.3-1.2-.8L42 33.7l-12.1 4.9c-.5.2-1.1.1-1.5-.3-.4-.4-.5-1-.2-1.5L45.5.8c.2-.5.7-.8 1.2-.8s1 .3 1.2.8l17.3 36.1c.2.5.1 1.1-.2 1.5-.4.4-1 .5-1.5.3l-12.1-4.9-3.5 8.1c-.2.4-.7.8-1.2.8"/><path id="Fill-3" d="M32 8c-9.6 0-17.3 7.8-17.3 17.3 0 7.3 4.5 13.7 11.2 16.2l14.9-31.1C38.2 8.8 35.1 8 32 8m-5.4 36.5c-.1 0-.3 0-.4-.1C17.7 41.9 12 34.2 12 25.3c0-11 9-20 20-20 4 0 8 1.2 11.3 3.5.5.4.7 1.1.4 1.7l-16 33.3c-.1.4-.6.7-1.1.7"/><path id="Fill-4" d="M57.3 80c-.7 0-1.3-.6-1.3-1.3V45.3c0-.7.6-1.3 1.3-1.3.7 0 1.3.6 1.3 1.3v33.3c.1.8-.5 1.4-1.3 1.4"/><path id="Fill-5" d="M65.3 52c-.3 0-.5-.1-.7-.2L57.3 47 50 51.8c-.6.4-1.4.2-1.8-.4-.4-.6-.2-1.4.4-1.8l8-5.3c.4-.3 1-.3 1.5 0l8 5.3c.6.4.8 1.2.4 1.8-.3.4-.7.6-1.2.6"/><path id="Fill-6" d="M65.3 58.7c-.3 0-.5-.1-.7-.2l-7.3-4.8-7.3 4.8c-.6.4-1.4.2-1.8-.4-.4-.6-.2-1.4.4-1.8l8-5.3c.4-.3 1-.3 1.5 0l8 5.3c.6.4.8 1.2.4 1.8-.3.4-.7.6-1.2.6"/><path id="Fill-7" d="M65.3 65.3c-.3 0-.5-.1-.7-.2l-7.3-4.8-7.3 4.8c-.6.4-1.4.2-1.8-.4-.4-.6-.2-1.4.4-1.8l8-5.3c.4-.3 1-.3 1.5 0l8 5.3c.6.4.8 1.2.4 1.8-.3.4-.7.6-1.2.6"/><path id="Fill-8" d="M12 80c-.7 0-1.3-.6-1.3-1.3v-36c0-.7.6-1.3 1.3-1.3s1.3.6 1.3 1.3v36c0 .7-.6 1.3-1.3 1.3"/><path id="Fill-9" d="M20 49.3c-.3 0-.5-.1-.7-.2L12 44.3l-7.3 4.8c-.6.4-1.4.2-1.9-.4-.4-.6-.2-1.4.4-1.8l8-5.3c.4-.3 1-.3 1.5 0l8 5.3c.6.4.8 1.2.4 1.8-.2.4-.7.6-1.1.6"/><path id="Fill-10" d="M20.8 56.5c-.3 0-.5-.1-.7-.2L12 50.9l-7.3 4.8c-.6.4-1.4.2-1.8-.4-.4-.6-.2-1.4.4-1.9l8-5.3c.4-.3 1-.3 1.5 0l8.8 5.9c.6.4.8 1.2.4 1.8-.3.5-.8.7-1.2.7"/><path id="Fill-11" d="M4 62.7c-.4 0-.9-.2-1.1-.6-.4-.6-.2-1.4.4-1.8l8-5.3c.4-.3 1-.3 1.5 0l6.4 4.3c.6.4.8 1.2.4 1.8-.4.6-1.2.8-1.9.4L12 57.6l-7.3 4.8c-.2.2-.4.3-.7.3"/><path id="Fill-12" d="M70.7 52.7c-.7 0-1.3-.6-1.3-1.3V12c0-.7.6-1.3 1.3-1.3.7 0 1.3.6 1.3 1.3v39.3c0 .8-.6 1.4-1.3 1.4"/><path id="Fill-13" d="M78.7 18.7c-.3 0-.5-.1-.7-.2l-7.3-4.8-7.3 4.8c-.6.4-1.4.2-1.9-.4-.4-.6-.2-1.4.4-1.8l8-5.3c.4-.3 1-.3 1.5 0l8 5.3c.6.4.8 1.2.4 1.8-.3.4-.7.6-1.1.6"/><path id="Fill-14" d="M78.7 25.3c-.3 0-.5-.1-.7-.2l-7.3-4.8-7.3 4.8c-.6.4-1.4.2-1.9-.4-.4-.6-.2-1.4.4-1.9l8-5.3c.4-.3 1-.3 1.5 0l8 5.3c.6.4.8 1.2.4 1.9-.3.4-.7.6-1.1.6"/><path id="Fill-15" d="M78.7 32c-.3 0-.5-.1-.7-.2L70.7 27l-7.3 4.8c-.6.4-1.4.2-1.9-.4-.4-.6-.2-1.4.4-1.9l8-5.3c.4-.3 1-.3 1.5 0l8 5.3c.6.4.8 1.2.4 1.9-.3.4-.7.6-1.1.6"/><path id="Fill-16" d="M49.3 80H44c-.7 0-1.3-.6-1.3-1.3 0-.7.6-1.3 1.3-1.3h5.3c.7 0 1.3.6 1.3 1.3.1.7-.5 1.3-1.3 1.3"/><path id="Fill-17" d="M57.3 74.7H52c-.7 0-1.3-.6-1.3-1.3 0-.7.6-1.3 1.3-1.3h5.3c.7 0 1.3.6 1.3 1.3.1.7-.5 1.3-1.3 1.3"/><path id="Fill-18" d="M62.7 80h-5.3c-.7 0-1.3-.6-1.3-1.3 0-.7.6-1.3 1.3-1.3h5.3c.7 0 1.3.6 1.3 1.3 0 .7-.6 1.3-1.3 1.3"/><path id="Fill-19" d="M70.7 74.7h-5.3c-.7 0-1.3-.6-1.3-1.3 0-.7.6-1.3 1.3-1.3h5.3c.7 0 1.3.6 1.3 1.3 0 .7-.6 1.3-1.3 1.3"/><path id="Fill-20" d="M78.7 80h-5.3c-.7 0-1.3-.6-1.3-1.3 0-.7.6-1.3 1.3-1.3h5.3c.7 0 1.3.6 1.3 1.3 0 .7-.6 1.3-1.3 1.3"/><path id="Fill-21" d="M41.3 74.7H36c-.7 0-1.3-.6-1.3-1.3 0-.7.6-1.3 1.3-1.3h5.3c.7 0 1.3.6 1.3 1.3.1.7-.5 1.3-1.3 1.3"/><path id="Fill-22" d="M33.3 80H28c-.7 0-1.3-.6-1.3-1.3 0-.7.6-1.3 1.3-1.3h5.3c.7 0 1.3.6 1.3 1.3.1.7-.5 1.3-1.3 1.3"/><path id="Fill-23" d="M25.3 74.7H20c-.7 0-1.3-.6-1.3-1.3 0-.7.6-1.3 1.3-1.3h5.3c.7 0 1.3.6 1.3 1.3.1.7-.5 1.3-1.3 1.3"/><path id="Fill-24" d="M17.3 80H12c-.7 0-1.3-.6-1.3-1.3 0-.7.6-1.3 1.3-1.3h5.3c.7 0 1.3.6 1.3 1.3.1.7-.5 1.3-1.3 1.3"/><path id="Fill-25" d="M12 74.7H6.7c-.7 0-1.3-.6-1.3-1.3 0-.7.6-1.3 1.3-1.3H12c.7 0 1.3.6 1.3 1.3 0 .7-.6 1.3-1.3 1.3"/><path id="Fill-26" d="M4 80H1.3C.6 80 0 79.4 0 78.7c0-.7.6-1.3 1.3-1.3H4c.7 0 1.3.6 1.3 1.3 0 .7-.6 1.3-1.3 1.3"/></g></g></g></g></g></g></svg>