<svg width="24" height="24" viewBox="0 0 24 24" xmlns="http://www.w3.org/2000/svg"><title>eye</title><g fill="none" fill-rule="evenodd"><path d="M0 0h24v24H0z"/><path d="M19.198 16.377C17.225 18.012 14.724 19 12 19s-5.224-.99-7.198-2.627C3.13 14.988 2 13.237 2 12s1.13-2.988 2.798-4.373C6.771 5.99 9.273 5 12 5c2.728 0 5.23.988 7.201 2.623C20.871 9.008 22 10.76 22 12c0 1.241-1.13 2.992-2.802 4.377zm-13.21-1.33C7.648 16.423 9.736 17.25 12 17.25c2.265 0 4.353-.825 6.012-2.2 1.31-1.085 2.17-2.417 2.17-3.05 0-.634-.859-1.966-2.167-3.05-1.657-1.375-3.747-2.2-6.015-2.2s-4.356.827-6.015 2.202C4.678 10.038 3.818 11.37 3.818 12c0 .629.861 1.962 2.17 3.047zM15.636 12c0 1.933-1.628 3.5-3.636 3.5S8.364 13.933 8.364 12 9.992 8.5 12 8.5s3.636 1.567 3.636 3.5zM12 10.25c-1.004 0-1.818.784-1.818 1.75s.814 1.75 1.818 1.75 1.818-.784 1.818-1.75h-.454C12.61 12 12 11.412 12 10.687v-.437z" fill="currentColor" fill-rule="nonzero"/></g></svg>