<svg width="24" height="24" viewBox="0 0 24 24" xmlns="http://www.w3.org/2000/svg"><g fill="none" fill-rule="evenodd"><path d="M0 0h24v24H0z"/><path d="M19.917 2H4.083A2.086 2.086 0 0 0 2 4.083v15.834C2 21.065 2.935 22 4.083 22h9.167c.23 0 .417-.187.417-.417v-7.5a.417.417 0 0 0-.417-.416h-2.083V12h2.083c.23 0 .417-.187.417-.417v-2.5a3.755 3.755 0 0 1 3.75-3.75h1.25V7h-1.25a2.086 2.086 0 0 0-2.084 2.083v2.5c0 .23.187.417.417.417h2.755l-.556 1.667H15.75a.417.417 0 0 0-.417.416v7.5c0 .23.187.417.417.417h4.167A2.086 2.086 0 0 0 22 19.917V4.083A2.086 2.086 0 0 0 19.917 2z" fill="currentColor" fill-rule="nonzero"/></g></svg>