<svg id="Layer_1" xmlns="http://www.w3.org/2000/svg" viewBox="0 0 92 81"><style>.st0,.st1{fill:none;stroke:#fff;stroke-width:1.5;stroke-linecap:round;stroke-miterlimit:10}.st1{display:none}</style><g id="ZZ-Elements"><g id="Elements_x2F_Category-Cards" transform="translate(-61 -876)"><g id="Family-and-Friends" transform="translate(45 835)"><g id="Category---Activity-Copy"><path class="st0" d="M100.1 62c1-1 1.9-2 2.9-3.1.6-.6 1.1-1.8 1-2.6-.3-2-2.7-2.4-4.2-.8-4.4 4.5-7 7.7-11.4 12.2M86.9 91.4c0-4.6 1.4-8.2 1.3-12.8M81.9 72.3c-2.1 0-3.1-.7-5.3-1.2-.8-.1-1.5-.4-1.9-.8-2.9-3-5.8-6-8.6-9l-5.7-6c-1-1.1-2.4-1.1-3.4-.3-1.1.9-1.1 2.2-.1 3.5.3.4.7.7 1 1.1 4.4 4.6 8.7 9.1 13 13.7.5.6.9 1.5.9 2.2.1 3.1.3 3.7.2 6.9v1c2.5-2.6 4.6-4.8 7.3-7.2.8-.7 2.2-.7 3.3.4 1 1 .5 2.9-.6 4-3 2.9-5.9 5.8-8.9 8.7-.1.1 1 2.2 1 2.3"/><path class="st1" d="M78.3 67.3c-.6-.7-1-1.4-1.3-2-.3-.7.2-2.1.8-2.7 1-.9 3.2-.8 4.8.8 1.1 1.1 2.3 2.2 3.4 3.3 1.3-1.3 1.6-2.4 1.6-4.3 0-4.1-3.4-7.5-7.4-7.5-4.1 0-7.4 3.4-7.5 7.4 0 4.7 4.5 7.3 7.4 7.5h.7c-.3-.2-.6-.5-1-.7-.2-.3-.8-1-1.5-1.8z"/><path class="st0" d="M76.4 68.3c-.2-.1-2.4-1.2-3.3-3.6-1.1-3.2.1-6.7 2.9-8.6 2.9-1.9 6.6-1.6 9.1.7s2.7 5.5 1 8.7M80.9 100.2v17.6c0 3 2.7 4.8 5.2 3.7 1.8-.8 2.3-2.3 2.3-4.2v-10.1"/><path class="st0" d="M86.7 93.1c-5.3 0-10.7-1-11.6 0s1.7 8.7 2.3 13.1c.5 3.8.5 4.3-4.1 5.4h-.2c0 2.3-.1 3.6 0 5.9 0 2.6 1.6 4.3 3.8 4.2 2.2 0 3.7-1.7 3.7-4.2"/><g><path class="st0" d="M44.7 57c-2.7-2.4-4.5-4.7-5.7-6.3 0 0-3.2-3.5-7.4-8.2-1.3-1.4-2.7-1.6-3.8-.6-1.1 1-1 2.4.3 3.8 4.8 5.4 8.4 9.3 13.3 14.7M62.7 78.1c0-2.8-.1-4.7-.1-7.6 0-2.5-.5-4.4-2.5-5.8-.6-.4-1.4-1-2.1-1.1-2.7-.1-4.4 0-6.7.1-.7 0-1.2 0-1.6-.2M55.2 92.2v25c0 1.2.4 2.6 1.1 3.6 1 1.4 2.7 1.6 4.2.9.6-.3.4-1.1.4-1.1v-.4c-.1-2.8 0-4.6 0-7.6v-.9s-.5-.4-1.4-.6c-1.8-.5-2.4-1.3-2.1-2.9.7-4.6 1.3-8.8 2-13.3.2-1.4.6-2.7.9-4.1.2-.6.4-1-.1-1.4-2.8-2.8-5.7-5.5-8.5-8.3-1.4-1.4-1.4-3.4-.4-4.3.8-.9 1.5-.6 2.4-.4.6.1 1.1.5 1.3.6.9.9 3.9 3.8 8 7.8"/><path class="st0" d="M46.2 67.7c0 9.3-.5 25.4.4 26.1.9.7 2.9-3 4.3-4.1 2-1.5 2.9-.7 3.9.6.6.7-.2 3.5-2 4.8-2.1 1.5-3.8 3.6-5.6 5.5-.2.2-.2.6-.3.8v17.2c.2 1.6.9 2.9 2.5 3.3 2 .4 2.9.1 3.9-.9 1.6-1.6 1.3-1.2 1.8-3 .7-2.2.2-3.9.1-4.3M56.2 60.2c-3 1.3-5.6.3-7.9-2-2.3-2.4-2.7-6.1-.9-9 1.8-3 5.3-4.2 8.6-3.1 3.2 1 5.6 4 5.4 7.6M64.4 56.8c4.1-4.5 7.5-8.3 11.4-12.6.6-.7 1.2-1.4 1.8-2 1-1 2.4-1.1 3.4-.2 1 .9 1.1 2.2.1 3.4-1.4 1.7-2.9 3.3-4.4 4.9-3.1 3.5-6 6.8-9 10.2"/></g><g><path class="st0" d="M36.3 88.8c-.8-4.1-1.4-6.8-2.2-11.2-.2-.9 0-1.4.6-2.1 4.1-4 8.2-8 12.3-12.1 1.2-1.1 1.3-2.4.5-3.3-.9-1-2.2-.9-3.4.3-3.4 3.4-7.1 6.5-10.2 10.1-2.6 3-5.4 4.3-9.2 3.7h-.1c-.6-.3-1.4-.4-1.8-.8-4.3-4.1-8.5-8.3-12.7-12.5-1.7-1.7-2.9-2-3.9-.8-1 1.1-.7 2.2 1 3.8 3.9 3.8 7.8 7.7 11.8 11.6.7.6.8 1.2.6 2.1-.5 1.9-1 3.8-1.3 5.7-1.1 6.4-2.1 12.7-3 19.1-.3 2.2-.2 2.4 1.9 3 3.2.8 6.4 1.4 9.2 2 3-.5 5.1-.5 7.5-1.2.5-.2.4-.2.8-.3v-3.7c0-.5.1-1.3-.3-1.6-1.8-1.8-3.5-3.4-5.4-5.2-1.4-1.3-1.8-3.4-.9-4.4.6-.6 1.5-1.1 2.5-1 .7.1 1.2.5 1.4.7 2.3 2 3.4 3.4 3.6 3.3"/><path class="st0" d="M33.6 65.1c0 3.9-3 6.8-6.8 6.8s-6.8-3-6.8-6.8 3.1-6.8 6.9-6.8c3.7 0 6.7 3 6.7 6.8zM26.5 109.2c0 3.8.1 7.5 0 11.2 0 1.6-1.3 2.7-2.8 2.7-1.6 0-3-1.1-3-2.7-.1-3.9 0-7.9 0-11.9 1.8.2 3.7.4 5.8.7zM26.6 109.2c2-.2 3.8-.5 5.8-.7v12c-.1 1.6-1.2 2.7-2.8 2.7-1.6 0-2.9-1-2.9-2.6"/></g><g><path class="st1" d="M66.4 111.5c-2-.4-4.3-.8-6.6-1.4-1.5-.4-1.6-.6-1.4-2.1.7-4.6 1.4-9.2 2.2-13.7.2-1.4.6-2.7.9-4.1.2-.6 0-1.1-.4-1.5-2.8-2.8-5.7-5.5-8.5-8.3-1.2-1.2-1.4-2-.7-2.7.8-.8 1.6-.7 2.8.6 3.1 3 6.1 6 9.2 9 .3.3.9.4 1.3.6h.1c2.7.4 4.8-.5 6.6-2.6 2.3-2.6 4.9-4.9 7.3-7.3.9-.9 1.8-1 2.4-.2.6.6.5 1.5-.3 2.4-2.9 2.9-5.9 5.8-8.9 8.7-.5.5-.6.8-.5 1.5 1 5.4 2.2 10.8 2.9 16.2.5 3.8 1 3.2-2.9 4.3-1.5.2-3.4.2-5.5.6z"/><path class="st0" d="M70.4 81.3c0 2-1.6 3.5-3.5 3.5-2 0-3.5-1.6-3.5-3.5s1.6-3.5 3.5-3.5c2 0 3.5 1.5 3.5 3.5zM66.9 112.7c0 2.4.1 4.8 0 7.2 0 1-.8 1.7-1.8 1.7s-1.9-.7-1.9-1.7c-.1-2.5 0-5.1 0-7.6 1.1.1 2.3.2 3.7.4zM67 112.7c1.3-.1 2.4-.3 3.7-.4v7.7c-.1 1-.8 1.7-1.8 1.7s-1.9-.6-1.9-1.7"/></g><g><path class="st0" d="M97.4 108.2c-2.6-.6-5.7-1.1-8.7-1.9-2-.5-2.1-.7-1.8-2.8.9-6 1.9-12.1 2.9-18.1.3-1.8.8-3.6 1.2-5.4.2-.8 0-1.4-.6-2-3.7-3.6-7.4-7.3-11.2-10.9-1.6-1.6-1.9-2.6-.9-3.6 1-1.1 2.1-.9 3.7.8 4 4 8 7.9 12.1 11.8.4.4 1.1.5 1.7.8h.1c3.6.6 6.3-.7 8.7-3.5 3-3.4 6.4-6.4 9.7-9.6 1.2-1.2 2.3-1.3 3.2-.3.8.9.7 2-.4 3.1-3.9 3.8-7.8 7.7-11.7 11.5-.6.6-.8 1.1-.6 2 1.4 7.1 2.9 14.2 3.9 21.4.7 5 1.3 4.2-3.9 5.7-2.1.5-4.5.6-7.4 1z"/><path class="st0" d="M103.4 69.4c0 3.1-2.5 5.5-5.5 5.5-3.1 0-5.5-2.5-5.5-5.5s2.5-5.5 5.6-5.5c3 0 5.4 2.5 5.4 5.5zM97.9 110.5c0 3.3.1 6.4 0 9.6 0 1.4-1.1 2.3-2.4 2.3-1.4 0-2.6-.9-2.6-2.3-.1-3.3 0-6.8 0-10.2 1.6.2 3.2.4 5 .6zM98.1 110.5c1.7-.2 3.3-.4 5-.6v10.2c-.1 1.4-1 2.3-2.4 2.3s-2.5-.9-2.5-2.2"/></g><g><path class="st1" d="M52.2 91.6c-.7-.8-1.6-.8-2.4 0-1.6 1.6-3.3 3.1-4.8 4.8-2.4 2.7-6.5 2.8-8.9.2-1.5-1.6-3.1-3.2-4.7-4.7-1-1-1.9-1.1-2.7-.3-.7.8-.6 1.7.4 2.7 1.8 1.8 3.7 3.5 5.5 5.4.4.4.6 1 .6 1.5.1 3 0 6.1 0 9.1v9.1c0 1.6.9 2.6 2.3 2.7 1.4 0 2.3-1 2.3-2.7 0-2.5-.3-3.4 0-5.8.1-.6.1-1.3.3-1.6.1-.1.3 0 .3 0 .2.2.2 1 .2 1.3 0 0 .1.2.1.3.1 2 0 4 .1 6 0 1.5 1.3 2.5 2.6 2.3s2-1.2 2-2.8v-17.8c0-.6.3-1.4.8-1.8 1.8-1.9 3.7-3.6 5.6-5.5 1-.7 1.1-1.6.4-2.4z"/><path class="st0" d="M40.6 96.1c2.1 0 3.9-1.8 3.9-4s-1.6-3.9-3.9-3.9c-2.2 0-4 1.8-4 4 .2 2.2 1.9 3.9 4 3.9zM40.2 112.9c0 2.3.1 4.6 0 6.9 0 1-.8 1.7-1.7 1.7-1 0-1.8-.7-1.8-1.7-.1-2.4 0-4.8 0-7.3 1.1.1 2.3.2 3.5.4zM40.3 112.9c1.2-.1 2.3-.3 3.5-.4v7.3c-.1 1-.7 1.7-1.7 1.7s-1.8-.6-1.8-1.6"/></g></g></g></g></g></svg>