<svg width="24" height="24" viewBox="0 0 24 24" xmlns="http://www.w3.org/2000/svg"><title>filter</title><g fill="none" fill-rule="evenodd"><path d="M0 0h24v24H0z"/><path d="M10.887 12.462a.936.936 0 0 1 .313.65v4.595l1.6-.866v-3.734a.93.93 0 0 1 .313-.645L16.457 9.8H7.543l3.344 2.662zM18.4 8.2V6.598L5.6 6.6v1.6h12.8zm-4 8.802c0 .44-.315.968-.703 1.178l-2.69 1.452c-.777.42-1.407.048-1.407-.838V13.48L4.628 9.502C4.28 9.225 4 8.64 4 8.197V6.598A1.6 1.6 0 0 1 5.6 5h12.8c.884 0 1.6.719 1.6 1.598v1.599c0 .443-.28 1.027-.628 1.305L14.4 13.48v3.522z" fill="currentColor" fill-rule="nonzero"/></g></svg>
