<svg id="Layer_1" xmlns="http://www.w3.org/2000/svg" viewBox="0 0 80 66"><style>.st0{display:none}.st1{display:inline}</style><g id="ZZ-Elements"><g id="Elements_x2F_Category-Cards" transform="translate(-67 -2458)"><g id="Flahcards" transform="translate(51 2409)"><g id="Category---Activity-Copy"><g id="Group" transform="translate(16 42)" class="st0"><path id="Shape" class="st1" d="M76 13.2L47.2 7.1c-2.3-.5-4.5.7-5.5 2.7H23.6c-2.8 0-5 2.3-5 5v.2L4 18.1C1.3 18.7-.4 21.3.1 24l9.3 44.5c.6 2.7 3.2 4.4 5.9 3.9L47 65.8c.5-.1.9-.3 1.3-.5h6.2l10.2 2.2c2.7.6 5.4-1.2 5.9-3.9l9.3-44.5c.6-2.7-1.2-5.4-3.9-5.9zm-60.8 53c-.3.1-.6-.2-.6-.4L6 24.5c-.1-.3.1-.6.4-.6l12.2-2.6v39c0 2 1.2 3.8 3 4.6l-6.4 1.3zm9.5-7c-.3 0-.5-.2-.5-.5V16.5c0-.3.2-.6.5-.6h15.5L38 26.4l-6.1 29c-.3 1.3 0 2.6.7 3.7h-7.9v.1zm40.7 1.6c-.1.3-.3.5-.6.4l-3.9-.9-6-1.3-4.3-.9-6-1.3-6.2-1.3c-.3-.1-.5-.3-.4-.6l3.1-14.8L44 26.3l2-10.4.5-2.2c.1-.3.3-.5.6-.4l13.8 2.9 12.8 2.7c.3.1.5.3.4.6l-8.7 41.3z"/></g><path d="M93.3 55.4l-30.1-6.3c-1.5-.3-3 .5-3.7 1.9l-.5 1H38.9c-1.9 0-3.4 1.5-3.4 3.4v1.7l-16.7 3.5c-.9.2-1.7.7-2.2 1.5-.5.8-.7 1.7-.5 2.6l9.8 46.5c.4 1.8 2.2 3 4 2.6l33-6.9c.3-.1.5-.2.9-.3l.4-.2h7.4l10.6 2.3c.9.2 1.8 0 2.6-.5s1.3-1.3 1.5-2.2l9.8-46.5c.2-1.9-1-3.7-2.8-4.1zm-62.8 55.4c-.2 0-.3.1-.5.1-.4 0-.9-.1-1.3-.4-.5-.4-.9-.9-1.1-1.5l-9-43.1c-.3-1.3.6-2.5 1.8-2.8l15-3.1v43c0 1.3.8 2.5 2 3.1l5.1 2.3-12 2.4zm9.6-7.2c-1.3 0-2.4-1.1-2.4-2.4V57.1c0-1.3 1.1-2.4 2.4-2.4h18.5l-9.1 43.5c-.2.9 0 1.8.5 2.5l1.8 2.8H40.1zm53.3-43l-9 43.2c-.1.6-.5 1.2-1 1.5-.4.3-.8.4-1.3.4h-.5l-4.1-.9-23.6-5c-1.3-.3-2.1-1.5-1.8-2.8l9-43.2c.1-.6.5-1.2 1-1.5.5-.3 1.2-.5 1.8-.3l27.7 5.8c.6.1 1.1.5 1.5 1 .3.6.4 1.2.3 1.8z"/><g id="New" class="st0"><path class="st1" d="M29 114.1c-1.5 0-2.8-1.1-3.1-2.5l-9.8-46.9c-.2-.8 0-1.7.4-2.4.5-.7 1.2-1.2 2-1.4l17-3.6v-1.9c0-1.8 1.4-3.2 3.2-3.2h20.4l.6-1.2c.5-1.1 1.7-1.8 2.8-1.8.2 0 .4 0 .6.1l30.3 6.4c1.7.4 2.8 2 2.5 3.7l-9.8 46.8c-.3 1.5-1.6 2.5-3.1 2.5-.2 0-.4 0-.7-.1l-10.9-2.3h-7.3l-.5.2c-.3.2-.6.3-.8.3l-33.3 7c-.1.3-.3.3-.5.3zm-9-52.8c-3.8.7-3.2 3.4-2.9 4.8l9.1 43.5c1 3.7 1.7 3.5 3.6 3.2l.3-.1h.2l13-2.7-5.9-3.7c-1.1-.5-1.9-1.6-1.9-2.9V58L20 61.3zm42.9-11c-1.7-.1-2.7 1.6-2.9 2.8l-9.4 44.7c-.1.7-.2 1.7.2 2.3.4.6 2.2 1.7 2.9 1.8l23.8 5 4.3.9h1.6c1.3 0 2.1-1.9 2.4-3.1L95 61.3c.4-1.7.4-2.9 0-3.5-.4-.6-.8-1.3-3.1-1.7l-13.4-2.9-13.6-2.8-2-.1zm-23.1 2.9c-2.5 0-3.5.4-3.5 4.1v44.4c0 3.5 1.3 3.8 3.6 3.6l12.2-1-2.1-3.2c-.4-.7-.6-1.5-.4-2.3L59 53.2H39.8z"/></g></g></g></g></g></svg>