<svg id="Layer_1" xmlns="http://www.w3.org/2000/svg" viewBox="0 0 58 80"><style>.st0{display:none}.st1{display:inline}</style><g id="ZZ-Elements"><g id="ZZ-Elements_1_"><g id="Elements_x2F_Category-Cards_1_" transform="translate(-75 -2047)"><g id="Folktales-And-Myths_1_" transform="translate(48 2005)"><g id="Category---Activity-Copy_1_"><g id="Group" transform="translate(16 42)"><path id="Page-1" class="st0" d="M62.2 0h-2.7c-2.3 0-4.5 1.2-5.8 3.2l-5.2 8.4H31.4l-5.2-8.4C25 1.2 22.7 0 20.4 0h-2.7C14 0 11 3 11 6.8v57.8c0 6.1 3.6 11.6 9.2 14.1l.6.3c1.8.7 3.7 1.1 5.7 1.1h26.9c2 0 3.9-.4 5.7-1.1l.6-.3c5.6-2.5 9.2-8 9.2-14.1V6.8c.1-3.7-3-6.8-6.7-6.8zm-5.7 4.9c.6-1.1 1.8-1.7 3-1.7h2.7c2 0 3.6 1.6 3.6 3.6v10.9c-2.8-3.7-7.3-6.1-12.3-6.1h-1.2l4.2-6.7zm4 34.4c-.9-.6-2-.9-3.2-.9s-2.2.4-3.2.9c0 0-3.3 2.2-4.9 3.3l-1.7-9.1c2-2.3 4.8-3.7 7.9-3.7 4.3 0 8.1 2.7 9.6 6.7.4 1.2.6 2.4.6 3.6v2.8c-1.1-.8-5-3.6-5.1-3.6zm.1 5.3c0 1.8-1.4 3.2-3.2 3.2s-3.2-1.4-3.2-3.2 1.4-3.2 3.2-3.2c1.7 0 3.2 1.4 3.2 3.2zM49 59.1l-3.7 6.1V38.4L49 59.1zM46.4 27c1.8-3.4 5.2-5.5 9.1-5.5 5.5 0 10 4.4 10.2 10-2.4-3-6.1-4.8-10.1-4.8-3.2 0-6.2 1.2-8.6 3.1l-.6-2.8zm7.1-12.2c4.9 0 9.1 2.8 11 7-2.4-2.2-5.6-3.6-9.1-3.6-3.8 0-7.4 1.6-9.9 4.4l-.3-2.1c-.1-.8-.8-1.3-1.6-1.3h-7.3c-.8 0-1.4.5-1.6 1.3l-.4 2.1c-2.5-2.8-6-4.4-9.9-4.4-3.5 0-6.7 1.3-9.1 3.6 2-4.1 6.2-7 11-7h27.2zM38 70.6V22.3h4v48.3h-4zM30.9 59l3.7-20.6v26.7L30.9 59zm3.2 11.6h-3.5v-3.2h1.5l2 3.2zM14.2 6.8c0-2 1.5-3.6 3.6-3.6h2.7c1.2 0 2.4.6 3 1.7l4.2 6.7h-1.2c-5 0-9.4 2.4-12.3 6.1V6.8zm10.2 14.6c3.8 0 7.3 2.1 9.1 5.5l-.5 2.9c-2.4-2-5.4-3.1-8.6-3.1-4 0-7.7 1.8-10.2 4.7.2-5.5 4.7-10 10.2-10zm3 55.6h-1.1c-1.6 0-3.1-.4-4.6-.9-.8-.6-1.4-1.4-1.7-2.3h7.4V77zm0-6.4H20c.6-1.9 2.4-3.2 4.5-3.2h2.8v3.2zm-2.8-6.3c-4.4 0-7.9 3.6-7.9 7.9-1.6-2.1-2.5-4.7-2.5-7.5v-7.3c2.5 2.9 6.1 4.8 10.2 4.8 1.4 0 2.8-.2 4.2-.6l1.6 2.7h-5.6zm-5.2-14.5c.9.6 2 .9 3.2.9s2.2-.4 3.2-.9c0 0 2.4-1.7 4.1-2.8l-2 11.4c-1.1.4-2.2.6-3.4.6-5.7 0-10.2-4.6-10.2-10.2v-2.6c1.4 1 5.1 3.6 5.1 3.6zm0-5.2c0-1.8 1.4-3.2 3.2-3.2s3.2 1.4 3.2 3.2-1.4 3.2-3.2 3.2c-1.8 0-3.2-1.4-3.2-3.2zm6.3-5.2c-.8-.6-1.9-1-3.1-1-1.2 0-2.2.4-3.2.9l-5.2 3.6v-2.8c0-1.2.3-2.5.6-3.6 1.5-4 5.3-6.7 9.6-6.7 3 0 6 1.4 7.9 3.7l-1.7 9.2c-1.6-1-4.9-3.3-4.9-3.3zm4.9 34.4h7.7V77h-7.7v-3.2zM49.2 77h-7.6v-3.2h7.6V77zm.1-6.4h-3.5l2-3.2h1.5v3.2zm8.9 5.5c-1.4.6-3 .9-4.6.9h-1.1v-3.2h7.4c-.4.9-.9 1.7-1.7 2.3zm-5.7-5.5v-3.2h2.8c2 0 3.8 1.3 4.5 3.2h-7.3zm13.3-5.9c0 2.8-.9 5.3-2.5 7.4 0-4.4-3.6-7.9-7.9-7.9h-5.6l1.6-2.7c1.3.4 2.8.6 4.2.6 4.1 0 7.8-1.9 10.2-4.8v7.4zm0-16.1c0 5.7-4.6 10.2-10.2 10.2-1.2.1-2.4-.1-3.5-.5l-2-11.4c1.7 1.2 4.1 2.8 4.1 2.8 1 .6 2 .9 3.2.9 1.2 0 2.2-.4 3.2-.9l5.2-3.6v2.5z"/><path d="M59.5.5c-2.2 0-4.2 1.1-5.3 3l-5.3 8.6H31.1l-5.4-8.6c-1-1.8-3.1-3-5.3-3h-2.7c-3.5 0-6.3 2.8-6.3 6.3v57.8c0 5.9 3.5 11.3 8.9 13.7l.6.3c1.7.7 3.6 1 5.5 1h26.9c1.9 0 3.8-.4 5.5-1l.6-.3c5.4-2.4 8.9-7.8 8.9-13.7V6.8c0-1.7-.6-3.3-1.8-4.5C65.3 1.1 63.8.4 62.1.4h-2.6zm-6 13.8c5 0 9.4 2.8 11.5 7.3l1.1 2.3-1.9-1.7c-2.4-2.2-5.5-3.4-8.7-3.4-3.6 0-7.1 1.5-9.5 4.2l-.7.8-.4-3.2c-.1-.5-.5-.9-1.1-.9h-7.3c-.6 0-1 .4-1.1.9l-.5 3.1-.7-.8c-2.4-2.7-5.9-4.2-9.5-4.2-3.2 0-6.3 1.2-8.7 3.4l-2 1.8 1.1-2.4c2.1-4.4 6.6-7.3 11.5-7.3h26.9zm6.9 25.5l-.1-.1c-.7-.5-1.8-.8-2.9-.8-1 0-1.9.3-3 .8 0 0-3.3 2.2-4.9 3.3l-.6.4-1.9-10 .2-.2c2.1-2.5 5.1-3.9 8.3-3.9 4.4 0 8.5 2.8 10.1 7 .4 1.1.7 2.4.7 3.8v3.7l-.8-.5c-.7-.4-2.2-1.5-3.4-2.3-.8-.6-1.5-1-1.7-1.2zm.7 4.8c0 2-1.7 3.7-3.7 3.7s-3.7-1.7-3.7-3.7 1.7-3.7 3.7-3.7 3.7 1.7 3.7 3.7zM49.6 59.2L44.8 67V38.4l1-.1 3.8 20.9zm15.7-27.4c-2.3-2.9-5.9-4.6-9.7-4.6-3 0-5.9 1.1-8.3 3l-.6.5L46 27l.1-.2c1.9-3.6 5.5-5.8 9.5-5.8 5.7 0 10.5 4.7 10.7 10.4v1.5l-1-1.1zm-22.8-10v49.3h-5V21.8h5zM19.7 49.4c.7.5 1.8.8 2.9.8 1 0 1.9-.3 3-.8 0 0 2.4-1.7 4.1-2.7l1-.6-2.3 12.8-.3.1c-1.3.4-2.5.6-3.5.6-5.9 0-10.7-4.8-10.7-10.7v-3.5l5.8 4zm-.8-4.8c0-2 1.7-3.7 3.7-3.7s3.7 1.7 3.7 3.7-1.7 3.7-3.7 3.7-3.7-1.6-3.7-3.7zm15.3-6.3l1 .1v28.4l-4.8-7.7 3.8-20.8zM13.7 6.8c0-2.3 1.8-4.1 4.1-4.1h2.7c1.4 0 2.8.7 3.5 1.9l4.6 7.4h-2.1c-4.7 0-9 2.2-11.9 5.9l-.9 1.2V6.8zm0 24.6c.2-5.8 5-10.4 10.7-10.4 4 0 7.6 2.2 9.5 5.8l.1.1-.6 3.9-.7-.6c-2.4-1.9-5.3-3-8.3-3-3.8 0-7.4 1.7-9.8 4.5l-.9 1.1v-1.4zm-.1 8.7c0-1.1.2-2.4.6-3.8 1.6-4.2 5.6-7 10.1-7 3.1 0 6.2 1.5 8.3 3.9l.2.2-1.9 10.1-.6-.4c-1.5-1-4.9-3.3-4.9-3.3-.7-.6-1.7-.9-2.8-.9-1 0-1.9.3-3 .8 0 0-3.9 2.6-5.2 3.5l-.8.5v-3.6zm3.6 32.1v1.5l-.9-1.2c-1.7-2.3-2.6-4.9-2.6-7.8V56l.9 1c2.5 2.9 6.1 4.6 9.8 4.6 1.5 0 2.8-.2 4-.6l.4-.1 2.3 3.8h-6.5c-4.1.1-7.4 3.4-7.4 7.5zm2.4-1.8c.7-2.1 2.7-3.5 5-3.5h3.3v4.2h-8.6l.3-.7zm8.3 7.1h-1.6c-1.5 0-3-.3-4.8-.9l-.1-.1c-.9-.7-1.6-1.6-1.9-2.6l-.2-.6h8.5l.1 4.2zm2.2-10.6h2.3l2.6 4.2h-4.9v-4.2zm8.8 10.6h-8.7v-4.2h8.7v4.2zm10.8 0h-8.6v-4.2h8.6v4.2zm.1-6.4H45l2.6-4.2h2.3v4.2zM60.4 74c-.4 1-1 1.9-1.8 2.5l-.1.1c-1.4.6-3 .9-4.8.9H52v-4.2h8.6l-.2.7zM52 71.1v-4.2h3.3c2.2 0 4.2 1.4 5 3.5l.3.7H52zm14.3-6.4c0 2.9-.9 5.5-2.6 7.7l-.9 1.1V72c0-4.1-3.3-7.4-7.4-7.4h-6.5l2.3-3.8.4.1c1.2.4 2.5.6 4 .6 3.8 0 7.5-1.7 9.8-4.6l.9-1.1v8.9zm0-16.1c0 5.9-4.8 10.7-10.7 10.7H55c-1.1 0-2.1-.2-3-.6l-.3-.1-2.3-12.8 1 .7c1.7 1.2 4.1 2.8 4.1 2.8 1.6 1 3.7 1.2 5.9 0 0 0 3.9-2.6 5.2-3.5l.8-.5-.1 3.3zm0-41.8v12.4l-.9-1.2c-2.9-3.8-7.2-5.9-11.9-5.9h-2.1l4.7-7.4c.7-1.2 2-1.9 3.4-1.9h2.7c2.2-.1 4.1 1.7 4.1 4z"/><g id="New" class="st0"><path class="st1" d="M68.5 65.3V25.9l-4.1-3.8c-2.3-2.1-5.3-3.3-8.5-3.3-3.5 0-6.9 1.5-9.2 4.1L44.8 25l-.6-5c0-.2-.2-.2-.4-.2h-7.5c-.2 0-.3.1-.4.4l-.8 4.8-1.8-2c-2.3-2.6-5.7-4.1-9.2-4.1-3.2 0-6.2 1.2-8.5 3.3l-4.3 4v39.2c0 5.8 3.4 11.1 8.7 13.4l.6.3c1.6.7 3.5 1 5.4 1h27.8c1.9 0 3.7-.3 5.4-1l.6-.3c5.3-2.4 8.7-7.7 8.7-13.5zm-.6.2c0 3.1-1.9 8-5.2 10.9v.5-3.7c0-3.8-3.1-6.9-6.9-6.9h-8.1l3.4-5.6 1 .3c1.1.4 2.5.6 3.9.6 3.7 0 7.3-1.7 9.6-4.5l2.3-2.8v11.2zm-5.7 7.4H51.6V67h4.2c2.6 0 4.9 1.7 5.9 4.1l.5 1.8zm5.8-24c0 6.5-5.3 11.8-11.8 11.8h-.7c-1.2 0-2.3-.2-3.4-.7l-.6-.3v-.1l-2.7-14.9-.1.1-2.2-11.9.4-.5c2.3-2.7 5.7-4.3 9.2-4.3 4.9 0 9.4 3.1 11.1 7.7.5 1.3.7 2.7.7 4.2l.2 3.7v.2l-.1 5zM45.4 26c2.1-3.9 6.1-6.4 10.5-6.4 6.3 0 11.6 5.2 11.8 11.5l.1 3.9-2.3-3c-2.3-2.8-5.7-4.5-9.4-4.5-2.9 0-5.8 1-8.1 2.9l-1.7 1.4-1-5.4.1-.4zm-1.2 12.1l2.5-.2v.2l4 21.9-.1.1-6.4 10.6V38.1zm-7.5-17.6h6.7v52.4h-6.7V20.5zm-.9 17.6v32.3l-6.5-10.5 4-22 2.5.2zm-23.7-7c.2-6.4 5.5-11.5 11.8-11.5 4.4 0 8.4 2.4 10.5 6.4l.2.4-.9 5.6-1.7-1.6c-2.3-1.9-5.2-2.9-8.1-2.9-3.7 0-7.2 1.6-9.6 4.4L12 34.8l.1-3.7zm-.1 9c0-1.3.2-2.6.7-4.1 1.8-4.7 6.2-7.8 11.1-7.8 3.4 0 6.9 1.6 9.1 4.3l.4.5-2.2 11.8.2-.1L28.6 60l-.7.2c-1.4.5-2.7.7-3.9.7-6.5 0-11.8-5.3-11.8-11.8l-.2-3.5v-5.5zm5.2 37v-.6c-3.8-3.7-5.2-7.9-5.2-11v-11l2.3 2.7c2.4 2.9 5.9 4.5 9.6 4.5 1.4 0 2.8-.2 3.9-.6l1-.3 3.4 5.6h-8.1c-3.8 0-6.9 3.1-6.9 6.9v3.8zm1-5.9c.8-2.5 3.2-4.2 5.9-4.2h4.2v5.9H17.8l.4-1.7zm10.1 8.3h-2.4c-1.6 0-3.3-.3-5.2-1l-.2-.1-.1-.1c-1.1-.8-1.8-1.9-2.2-3l-.3-1.7h10.5l-.1 5.9zm.8-12.5h3.6l3.6 5.9h-7.2V67zm10.5 12.5H29.1v-5.9h10.6v5.9zm11.2 0H40.3v-5.9h10.5v5.9zm.1-6.6h-7.2l3.6-5.9h3.6v5.9zm8.4 5.5c-1.6.7-3.4 1-5.3 1h-2.4v-5.9h10.6l-.5 1.8c-.5 1.2-1.2 2.2-2.1 2.9l-.3.2z"/><path class="st1" d="M24.6 40.5l-.1-.1c-.6-.5-1.5-.7-2.4-.7-.9 0-1.7.2-2.7.8-.4.3-1.6 1.2-5.3 3.6l-.9.6 6.4 4.4c.6.4 1.5.7 2.6.7.9 0 1.7-.2 2.6-.7.1-.1 2.5-1.7 4.2-2.8l2.1-1.4-1.5-1c-1.3-.9-3.7-2.5-5-3.4zM22 49.4c-2.5 0-4.6-2.1-4.6-4.6 0-2.5 2.1-4.6 4.6-4.6s4.6 2.1 4.6 4.6c0 2.5-2.1 4.6-4.6 4.6zM55.4 48.9c1.5 1 3.4.9 5.3-.1.4-.3 1.6-1.2 5.3-3.6l.9-.6-1-.6c-.7-.4-2.2-1.5-3.5-2.4-.6-.4-1.2-.8-1.5-1.1h-.1l-.3-.2c-.6-.4-1.5-.7-2.6-.7-.9 0-1.8.2-2.7.8-.3.3-1.4 1-4.9 3.3l-1.3.9 2.2 1.5c1.7 1.2 4.2 2.8 4.2 2.8zm2.6-8.7c2.5 0 4.6 2.1 4.6 4.6 0 2.5-2.1 4.6-4.6 4.6-2.5 0-4.6-2.1-4.6-4.6 0-2.6 2-4.6 4.6-4.6z"/><path d="M68.5 5.8c0-1.5-.5-3-1.6-4.1C65.8.6 64.4 0 62.9 0h-2.8c-2 0-3.9 1-4.9 2.7l-5.7 9.2H30.4l-5.8-9.2C23.6 1 21.8 0 19.8 0H17c-3.1 0-5.7 2.5-5.7 5.7v20.6l.6-.8c1.9-8.1 8.9-12.9 14.2-12.9h27.8c5.4 0 11 4.3 13.6 10l1 3.3V5.8zM26 11.9c-4.6 0-8.8 2.1-11.6 5.8l-2.3 3V5.6c0-2.8 2.2-5 5-5h2.8c1.8 0 3.4.9 4.2 2.4l5.5 8.8H26zm41.9 8.9l-2.3-3C62.8 14.1 58.5 12 54 12h-3.5L56 3.2c.9-1.5 2.5-2.4 4.2-2.4H63c2.7 0 5 2.2 5 5v15z"/></g></g></g></g></g></g></g></svg>