<svg id="Layer_1" xmlns="http://www.w3.org/2000/svg" viewBox="0 0 80 80"><style>.st3{display:inline}</style><g id="ZZ-Elements"><g id="Elements_x2F_Category-Cards" transform="translate(-67 -1459)"><g id="Funny" transform="translate(51 1417)"><g id="Funny-1"><g id="Group" transform="translate(16 42)"><path id="Rectangle-7" fill="none" d="M0 0h80v80H0z"/><g id="Page-1"><path id="Fill-1" d="M40 40.4c-1.9 0-3.5-1.4-3.8-3.3-.1-.7.4-1.4 1.1-1.5.7-.1 1.4.4 1.5 1.1.1.6.6 1 1.1 1 .6 0 1.1-.4 1.2-1 .1-.7.8-1.2 1.6-1.1.7.1 1.2.8 1.1 1.6-.3 1.9-1.9 3.3-3.8 3.2z"/><path id="Fill-2" d="M50.5 28c-.7 0-1.2-.5-1.3-1.1-.1-.6-.6-1-1.2-1s-1.1.4-1.2 1c-.1.7-.8 1.2-1.5 1.1s-1.2-.8-1.1-1.5c.3-1.9 1.9-3.2 3.8-3.2s3.5 1.4 3.8 3.2c.1.7-.4 1.4-1.1 1.5h-.2z"/><path id="Fill-3" d="M34.5 28c-.7 0-1.2-.5-1.3-1.1-.1-.6-.6-1-1.2-1s-1.1.4-1.2 1c-.1.7-.8 1.2-1.5 1.1-.7-.1-1.2-.8-1.1-1.5.3-1.9 1.9-3.2 3.8-3.2s3.5 1.4 3.8 3.2c.1.7-.4 1.4-1.1 1.5h-.2z"/><path id="Combined-Shape" d="M60.2 5.5c2.6 1.6 3.8 2.2 6.9 5.1 10.2 9.3 14.8 23.2 12.3 36.8C76.9 61 67.6 72.3 54.7 77.3c-12.8 5.1-27.3 3.1-38.4-5C5.2 64-.9 50.7.1 36.9 1.2 23.2 9.2 11 21.5 4.6c12.2-6.4 26.8-6.1 38.7.9zm-1.5 2.6c-11-6.4-24.5-6.8-35.8-.8C11.5 13.1 4.1 24.4 3.1 37.2c-1 12.7 4.7 25 14.9 32.6 10.3 7.6 23.7 9.3 35.6 4.7C65.4 69.7 74 59.3 76.4 46.8c2.3-12.5-2-25.4-11.4-34-2.8-2.7-3.9-3.3-6.3-4.7z"/><path id="Combined-Shape_1_" d="M62.3 43.5c2.7-.6 3-.6 3.6-.2.3.3.5.7.5 1.1 0 7.7-6.7 24.6-26.7 24.6S13 52.1 13 44.4c0-.4.2-.8.5-1.1.6-.5.9-.4 3.6.2 7.4 1.7 15 2.6 22.6 2.7 7.6-.1 15.2-1 22.6-2.7zm-4.7 3.9c-5.7 1.3-11.5 2-17.3 2-5.8-.1-11.6-.7-17.3-2-2-.4-2.3-.5-3.2-.7-4-.6-4.1.1-4.1.4 0 5.7 8.4 19.4 23.7 19.4S63.2 53.7 63.2 48c0-.3-.2-1.2-.4-1.4-.5-.4-3.1.3-5.2.8z"/></g></g></g></g></g></g></svg>