<svg xmlns="http://www.w3.org/2000/svg" width="24" height="24"><g fill="none" fill-rule="evenodd" transform="translate(2 6)"><rect width="18.7" height="10.7" x=".65" y=".65" stroke="currentColor" stroke-width="1.3" rx="2"/><path fill="currentColor" d="M8.24 6.94v1.81c-.62.427-1.39.64-2.31.64-.92 0-1.638-.288-2.155-.865C3.258 7.948 3 7.093 3 5.96c0-.5.065-.95.195-1.35.13-.4.3-.73.51-.99.21-.26.455-.477.735-.65.533-.313 1.138-.47 1.815-.47s1.308.137 1.895.41v1.7l-1.02.07V3.9c0-.1-.013-.173-.04-.22-.073-.127-.377-.19-.91-.19-1.287 0-1.93.797-1.93 2.39 0 1.68.58 2.52 1.74 2.52.46 0 .813-.08 1.06-.24V6.67h-.01l-.77-.03v-.85h2.49v.8l-.23.02c-.107.013-.182.042-.225.085-.043.043-.065.125-.065.245zM9.95 8.1V3.5l-.57-.03v-.85h2.42v.81l-.33.03c-.193.02-.29.127-.29.32v4.61l.57.03v.85H9.33v-.81l.33-.03a.396.396 0 0 0 .22-.085c.047-.043.07-.125.07-.245zm2.47 1.17v-.81l.33-.03c.193-.02.29-.113.29-.28V3.5l-.57-.03v-.85h4.83v1.66l-1.02.07v-.4c0-.113-.017-.193-.05-.24-.033-.047-.113-.07-.24-.07h-1.73v1.77h2.46v1.02h-2.46v1.96l.89.03v.85h-2.73z"/></g></svg>