<svg width="24" height="24" viewBox="0 0 24 24" xmlns="http://www.w3.org/2000/svg"><title>Google</title><g fill="none" fill-rule="evenodd"><path d="M2 0h20a2 2 0 0 1 2 2v20a2 2 0 0 1-2 2H2a2 2 0 0 1-2-2V2a2 2 0 0 1 2-2zm.425 11.959c-.2 2.554 1.48 5.06 3.852 5.963 2.363.91 5.393.29 6.902-1.833.996-1.341 1.21-3.067 1.094-4.69a548.373 548.373 0 0 0-5.798-.005c-.003.69 0 1.378.003 2.068 1.156.037 2.314.02 3.47.037-.51 2.564-3.997 3.395-5.842 1.72-1.897-1.468-1.807-4.688.165-6.052 1.379-1.1 3.34-.829 4.718.124a21.598 21.598 0 0 0 1.538-1.593c-1.147-.915-2.554-1.566-4.052-1.497-3.125-.104-5.998 2.633-6.05 5.758zm15.616-2.306c-.005.577-.011 1.153-.014 1.732-.58.003-1.156.006-1.732.012v1.723l1.732.017c.006.577.006 1.153.012 1.73h1.726c.003-.577.005-1.153.011-1.732l1.732-.015v-1.723c-.576-.006-1.155-.006-1.732-.012-.006-.576-.008-1.155-.011-1.732H18.04z" fill="currentColor"/></g></svg>
