<svg width="24" height="24" viewBox="0 0 24 24" xmlns="http://www.w3.org/2000/svg"><title>heart</title><g fill="none" fill-rule="evenodd"><path d="M0 0h24v24H0z"/><path d="M4.73 9.19c0 2.702 2.647 5.969 6.925 8.765 4.277-2.796 6.915-5.993 6.915-8.765a3.46 3.46 0 0 0-5.766-2.58l-.833.746a.49.49 0 0 1-.642 0l-.833-.745A3.46 3.46 0 0 0 4.73 9.19zm6.92-3.868A5.19 5.19 0 0 1 20.3 9.19c0 4.183-4.33 8.217-8.283 10.584a.761.761 0 0 1-.732.002C7.306 17.417 3 13.374 3 9.19a5.19 5.19 0 0 1 8.65-3.868z" fill-rule="nonzero" fill="currentColor"/></g></svg>
