<svg xmlns="http://www.w3.org/2000/svg" width="30" height="30"><g fill="none" fill-rule="evenodd"><path d="M-5-5h40v40H-5z"/><path fill="#fff" fill-rule="nonzero" d="M16.5 20.25h.75c.829 0 1.5.666 1.5 1.5 0 .828-.666 1.5-1.5 1.5h-4.5c-.829 0-1.5-.666-1.5-1.5 0-.828.666-1.5 1.5-1.5h.75v-4.5h-.746c-.83 0-1.504-.666-1.504-1.5 0-.828.665-1.5 1.504-1.5h2.242c.417 0 .792.168 1.063.439.273.27.441.645.441 1.061v6zM15 30C6.716 30 0 23.284 0 15 0 6.716 6.716 0 15 0c8.284 0 15 6.716 15 15 0 8.284-6.716 15-15 15zm0-3c6.627 0 12-5.373 12-12S21.627 3 15 3 3 8.373 3 15s5.373 12 12 12zm0-15.75a2.25 2.25 0 1 1 0-4.5 2.25 2.25 0 0 1 0 4.5z"/></g></svg>