<svg width="24" height="24" viewBox="0 0 24 24" xmlns="http://www.w3.org/2000/svg"><title>information</title><g fill="none" fill-rule="evenodd"><path d="M0 0h24v24H0z"/><path d="M12.8 14.8h.4c.442 0 .8.355.8.8 0 .442-.355.8-.8.8h-2.4a.798.798 0 0 1-.8-.8c0-.442.355-.8.8-.8h.4v-2.4h-.398a.8.8 0 1 1 0-1.6h1.196a.798.798 0 0 1 .802.8v3.2zM12 20a8 8 0 1 1 0-16 8 8 0 0 1 0 16zm0-1.6a6.4 6.4 0 1 0 0-12.8 6.4 6.4 0 0 0 0 12.8zm0-8.4a1.2 1.2 0 1 1 0-2.4 1.2 1.2 0 0 1 0 2.4z" fill-rule="nonzero" fill="currentColor"/></g></svg>
