<svg width="24" height="24" viewBox="0 0 24 24" xmlns="http://www.w3.org/2000/svg"><g fill="currentColor" fill-rule="evenodd"><path d="M12.028 8.703A3.31 3.31 0 0 0 8.73 12a3.31 3.31 0 0 0 3.297 3.297A3.31 3.31 0 0 0 15.325 12a3.31 3.31 0 0 0-3.297-3.297z"/><path d="M15.432 2.243h-6.81c-3.514 0-6.38 2.865-6.38 6.379v6.784c0 3.513 2.866 6.379 6.38 6.379h6.784c3.513 0 6.379-2.866 6.379-6.38l-.001-6.81c0-3.487-2.865-6.352-6.352-6.352zM12.027 17.08A5.076 5.076 0 0 1 6.946 12c0-2.81 2.27-5.082 5.081-5.082 2.81 0 5.082 2.27 5.082 5.082a5.077 5.077 0 0 1-5.082 5.081zm5-8.919a1.258 1.258 0 0 1-1.243-1.244c0-.675.568-1.243 1.243-1.243.676 0 1.244.568 1.244 1.243-.027.704-.568 1.244-1.244 1.244z"/></g></svg>