<svg id="Layer_1" xmlns="http://www.w3.org/2000/svg" viewBox="0 0 72 81"><style>.st0{display:none}.st1{display:inline}</style><g id="ZZ-Elements_1_"><g id="Elements_x2F_Category-Cards_1_" transform="translate(-71 -2240)"><g id="Lifeskills_1_" transform="translate(51 2198)"><g id="Category---Activity-Copy_1_"><g id="Group_1_" transform="translate(16 42)"><g id="noun_953404_cc_1_" transform="translate(4)" class="st0"><path id="Shape" class="st1" d="M28 48.6c-.5 0-1-.2-1.4-.6L12 33.5c-.8-.8-.8-2 0-2.8s2-.8 2.8 0l14.6 14.6c.6.6.7 1.4.4 2.2-.3.6-1 1.1-1.8 1.1z"/><path id="Shape_8_" class="st1" d="M61.2 79.8c-2 0-3.9-.8-5.3-2.2l-17-16.8c-.8-.8-.8-2 0-2.8s2-.8 2.8 0l17 16.8c1.4 1.3 3.5 1.3 4.9 0 1.4-1.4 1.4-3.5 0-4.9L48.2 54.3c-.8-.8-.8-2 0-2.8s2-.8 2.8 0L66.5 67c2.1 2.1 2.8 5.3 1.6 8.1-1.1 2.8-3.8 4.7-6.9 4.7z"/><path id="Shape_2_" class="st1" d="M32.3 37.3c-.5 0-1-.2-1.4-.6l-.7-.7-4.3-4.3-6.1-5.8c-.5-.5-.7-1.2-.6-1.9s.7-1.3 1.4-1.5c.7-.2 1.4 0 1.9.5l6.2 5.9 5 5c.6.6.8 1.4.5 2.2-.3.7-1.1 1.2-1.9 1.2z"/><path id="Shape_3_" class="st1" d="M28.9 22.5c-.5 0-1-.2-1.4-.6L24.6 19c-.8-.8-.8-2 0-2.8s2-.8 2.8 0l1.5 1.5 3-3L22.1 5l-3 3 4.7 4.9c.8.8.7 2.1-.1 2.8-.8.8-2.1.7-2.8-.1l-6-6.3c-.8-.8-.8-2 0-2.8L20.7.7c.8-.8 2-.8 2.8 0l12.6 12.6c.4.4.6.9.6 1.4s-.2 1-.6 1.4l-5.8 5.8c-.4.4-.9.6-1.4.6z"/><path id="Shape_4_" class="st1" d="M6 26c-.8 0-1.5-.5-1.9-1.2s-.1-1.5.5-2.2L16.9 9.8c.5-.6 1.2-.8 2-.6s1.3.7 1.5 1.4 0 1.5-.6 2L7.5 25.4c-.4.4-.9.6-1.5.6z"/><path id="Shape_5_" class="st1" d="M21.1 26.4c-.7 0-1.4-.4-1.8-1.1s-.3-1.5.1-2.1l4.8-6.8c.6-.9 1.9-1.1 2.8-.5s1.1 1.9.5 2.8l-4.7 6.8c-.4.5-1 .8-1.7.9z"/><path id="Shape_6_" class="st1" d="M8 43.5c-.5 0-1-.2-1.4-.6-11-11-2-20.2-1.9-20.3.8-.7 2-.7 2.8.1s.8 2 .1 2.8c-.7.6-6 6.5 1.9 14.5.6.6.7 1.4.4 2.2-.3.8-1.1 1.3-1.9 1.3z"/><path id="Shape_1_" class="st1" d="M18.3 80c-1.6 0-3.2-.3-4.7-.8l-2-.6c-.7-.2-1.1-.8-1.3-1.4-.2-.7 0-1.4.5-1.9l8.9-8.9-3-3-8.9 8.9c-.5.5-1.2.6-1.8.5-.6-.2-1.2-.7-1.4-1.3l-.7-1.9c-1.5-4.4-.8-9.3 1.8-13.1l1-1.5c1.3-1.8 2.9-3.3 4.9-4.4l.2-.1c2.7-1.5 5.9-2.1 9-1.8l2.7.4 17.7-17.7-.3-2.8c-.4-3.1.2-6.2 1.7-8.9 1.1-2 2.6-3.7 4.4-5l1.7-1.1c3.8-2.7 8.7-3.4 13.1-1.8l1.9.7c.7.2 1.1.8 1.3 1.4.2.7 0 1.4-.5 1.9l-8.9 8.9 3 3 8.9-8.9c.5-.5 1.2-.7 1.9-.5.7.2 1.2.6 1.4 1.3l.6 1.8c1.5 4.5.8 9.5-1.9 13.4l-.9 1.2c-3.2 4.6-8.7 7.1-14.3 6.3l-2.5-.3-11.4 11.3-5.6 5.4-.7.8.4 2.9c.4 3.1-.2 6.2-1.7 8.9-1.1 2-2.6 3.7-4.4 5l-1.7 1.2c-2.5 1.6-5.4 2.5-8.4 2.5zM16 75.8c2.9.6 5.9 0 8.4-1.7l1.7-1.2c1.3-.9 2.4-2.2 3.2-3.6 1.1-2 1.5-4.2 1.2-6.4l-.5-3.7c-.1-.6.1-1.1.5-1.5l1.3-1.6.2-.2 5.7-5.4 12-12c.4-.4 1.1-.6 1.7-.6l3.5.5c4.1.5 8.1-1.3 10.5-4.6l.9-1.2c1.7-2.5 2.3-5.6 1.7-8.5l-8 8c-.4.4-.9.6-1.4.6s-1-.2-1.4-.6l-5.8-5.8c-.4-.4-.6-.9-.6-1.4s.2-1 .6-1.4l8-8c-2.9-.6-5.9 0-8.4 1.7l-1.7 1.2c-1.3.9-2.4 2.2-3.2 3.6-1.1 2-1.5 4.2-1.2 6.4l.5 3.7c.1.6-.1 1.3-.6 1.7l-19 19c-.4.4-1.1.6-1.7.6l-3.7-.5c-2.3-.3-4.6.2-6.5 1.3l-.3-.2c-1.4.8-2.6 1.9-3.5 3.2l-1 1.5c-1.7 2.4-2.3 5.5-1.6 8.4l8-8c.4-.4.9-.6 1.4-.6s1 .2 1.4.6l5.8 5.8c.4.4.6.9.6 1.4s-.2 1-.6 1.4L16 75.8z"/></g><g id="noun_953404_cc_2_"><path d="M27.9 47.1c.2-.7-.1-1-.2-1.1L12.5 31.1c-.2-.2-.5-.3-.7-.3s-.5.1-.7.3c-.2.2-.3.5-.3.7s.1.5.3.7l15.2 14.8c.5.5 1.3.2 1.6-.2zM56.8 77.5c1.3 1.3 3 2 4.8 2 2.8 0 5.2-1.6 6.2-4.2 1.1-2.5.5-5.3-1.4-7.2L50.2 52.2c-.4-.4-1-.4-1.4 0-.2.2-.3.5-.3.7 0 .3.1.5.3.7l16.1 16c1.9 1.8 1.9 4.6 0 6.4-1.9 1.7-4.7 1.7-6.6 0L40.5 58.9c-.2-.2-.5-.3-.7-.3-.3 0-.5.1-.7.3-.2.2-.3.5-.3.7 0 .3.1.5.3.7l17.7 17.2zM18.8 23.6c-.1.4.1.8.3 1.1l6.3 5.9 5.2 5.1c.2.2.5.3.7.3.4 0 .9-.3 1-.6.2-.5-.1-.9-.3-1.1l-5-5.2-6.4-6c-.2-.2-.4-.3-.7-.3h-.3c-.4.2-.7.5-.8.8zM35 13.9c0-.3-.1-.5-.3-.7L21.6.3c-.4-.4-1-.4-1.4 0l-6 5.9c-.4.4-.4 1 0 1.4l6.3 6.5c.2.2.5.3.7.3.2 0 .4 0 .7-.3.2-.2.4-.5.4-.7 0-.2 0-.4-.3-.7L16.2 7l4.6-4.5L32.5 14l-4.6 4.5-2.3-2.3c-.2-.2-.5-.3-.7-.3s-.5.1-.7.3c-.2.2-.3.5-.3.7 0 .3.1.5.3.7l3 3c.4.4 1 .4 1.4 0l.1-.1 6-5.9c.2-.2.3-.4.3-.7z" transform="translate(4)"/><path d="M4.9 24.2l12.8-13.1c.3-.2.4-.6.3-1-.1-.4-.4-.6-.8-.7h-.4c-.4 0-.5.2-.7.3L3.3 22.8c-.4.3-.5.8-.4 1 .2.3.6.7 1.1.7.3 0 .6-.1.9-.3zM25.6 17.5c.1-.2.2-.5.2-.8 0-.2-.1-.5-.4-.6-.2-.1-.4-.2-.6-.2h-.2c-.2 0-.5.1-.7.4l-5 7c-.1.1-.3.6-.1 1.1.2.4.5.6.9.6.3-.1.7-.2 1-.5l4.9-7z" transform="translate(4)"/><path d="M5.4 42c.2.2.5.3.7.3.4 0 .9-.3 1-.6.3-.7-.1-1-.2-1.1-7.3-7.3-4.7-13.7-2-16.4.3-.4.3-1-.1-1.4-.2-.2-.5-.3-.8-.3-.3 0-.5.1-.7.3-.2.3-8.5 8.8 2.1 19.2zM54.5 41.1c5.4.8 10.8-1.5 13.9-6l1-1.3c2.6-3.7 3.3-8.5 1.8-12.8l-.6-1.8c-.1-.3-.2-.5-.8-.7-.4-.1-.7 0-1 .3l-10 9.8-4.6-4.5 10-9.8c.3-.3.4-.6.3-.9-.1-.3-.3-.6-.6-.7l-2.1-.7c-4.2-1.5-9-.9-12.7 1.7l-1.8 1.1c-1.7 1.2-3.2 2.8-4.2 4.7-1.5 2.6-2 5.5-1.7 8.5l.4 3.4-19.1 18.8-3.3-.5c-3-.3-6.2.3-8.7 1.7l-.2.1c-1.8 1-3.4 2.4-4.7 4.2l-1 1.5c-2.8 3.7-3.4 8.3-2 12.5l.7 1.9c.1.3.4.6.7.7.2 0 .6 0 .9-.2l10-9.8 4.6 4.5-10 9.8c-.3.3-.4.6-.3.9.1.3.3.6.6.7l2.1.6c1.6.5 3.1.8 4.6.8 2.9 0 5.7-.8 8.2-2.4l1.7-1.2c1.8-1.2 3.2-2.9 4.3-4.8 1.5-2.6 2-5.5 1.7-8.5l-.5-3.4 1-1.2 5.9-5.6 12.2-11.9 3.3.5zM50.3 39L37.8 51.2l-6.1 5.7-1.4 1.7c-.2.2-.3.4-.2.6l.5 3.8c.3 2.5-.1 5-1.4 7.2-1 1.7-2.2 3.1-3.7 4l-1.8 1.2c-2.1 1.4-4.6 2.2-7 2.2-.8 0-1.7-.1-2.5-.3l-1.9-.3 9.8-9.5c.2-.2.3-.4.3-.7s-.1-.5-.3-.7l-6-5.9c-.4-.4-1-.4-1.4 0L5 69.6l-.4-1.8c-.8-3.3-.1-6.7 1.8-9.4l1-1.5c1-1.5 2.4-2.7 4-3.6l.4-.2.3.1c2.1-1.1 4.6-1.5 7-1.2l3.8.5c.4 0 .8-.2 1-.3l19.9-19.5c.2-.1.3-.5.2-.8l-.4-3.9c-.3-2.5.1-5 1.4-7.2 1-1.7 2.2-3.1 3.7-4l1.8-1.2c2.9-1.9 6.3-2.6 9.6-1.9l1.9.4-9.7 9.5c-.2.2-.3.4-.3.7s.1.5.3.7l6 5.9c.4.4 1 .4 1.4 0l9.7-9.5.4 1.9c.7 3.3 0 6.7-1.9 9.5l-1 1.3c-2.7 3.7-7.3 5.7-11.9 5.1l-3.6-.5c-.5 0-.9.1-1.1.3z" transform="translate(4)"/></g><g id="New" class="st0"><path class="st1" d="M39.5 61.2l17.8 17.6c1.2 1.2 2.8 1.9 4.5 1.9 2.6 0 4.8-1.5 5.8-3.9s.5-5-1.3-6.8L50 53.6c-.2-.2-.5-.2-.7 0-.1.1-.2.2-.2.4 0 .1.1.2.2.4l16.2 16.4c1 1 1.6 2.3 1.6 3.7 0 1.4-.6 2.7-1.6 3.7-2.1 2-5.3 2-7.3 0l-18-17.7c-.1-.1-.2-.2-.4-.2-.1 0-.2.1-.4.2-.1.2-.1.4.1.7zM32 35.7c0-.1.1-.3-.2-.6l-5.2-5.2-6.1-5.8 4.4-6.3 2.7 2.7c.1.1.2.2.4.2.1 0 .1 0 .2-.1l.1-.1 6.1-6.1c.1-.1.2-.2.2-.4s-.1-.2-.2-.4L21.1.3c-.1-.1-.2-.2-.4-.2-.1 0-.2.1-.4.2l-6.1 6.1c-.2.2-.2.5 0 .7l2.4 2.5L3.5 23.4l-.1.1c-1.8 2.2-6.9 9.7 2.2 18.9.3.3.8 0 .9-.1.1-.4 0-.5-.1-.6-7.6-7.7-4.9-14.6-2-17.5v-.1l.1-.2 12.9-13.5 3.2 3.3c.1.1.2.2.4.2.1 0 .2 0 .3-.1.2-.1.2-.3.2-.4 0-.1 0-.2-.1-.3l-6-6.3 5.4-5.4L33.3 14l-5.4 5.4-2.7-2.7c-.1-.1-.1-.1-.2-.1-.3-.1-.6-.1-.7.1l-5.1 7.2c0 .1-.2.3 0 .5l.3.3.2.1 6.2 5.9 5.3 5.3c.2.2.7-.1.8-.3z" transform="translate(4)"/><path class="st1" d="M11.3 32.6l15.3 15.2c.3.3.7.1.8-.1.1-.3 0-.5-.1-.5L12 31.9c-.1-.1-.2-.2-.4-.2-.1 0-.2.1-.4.2-.2.2-.2.5.1.7z" transform="translate(4)"/><path class="st1" d="M68.2 35.3l.9-1.3c2.5-3.7 3.3-8.4 1.8-12.7l-.6-1.8c-.1-.2-.2-.3-.4-.3s-.3 0-.5.1L58.9 29.8l-5.4-5.4L64 14c.1-.1.2-.3.1-.5 0-.2-.2-.3-.3-.4l-2-.7c-4.2-1.5-8.8-.7-12.4 1.8l-1.8 1.2c-1.7 1.2-3.1 2.8-4.1 4.7-1.4 2.5-2 5.5-1.6 8.4l.4 3.7-19.6 19.5-3.6-.5c-2.9-.3-5.9.2-8.5 1.7l-.2.1c-1.8 1-3.4 2.4-4.6 4.1l-1 1.6C2.3 62.2 1.6 66.8 3.1 71l.7 2c.1.1.2.3.3.3.2 0 .3 0 .5-.1l10.5-10.5 5.4 5.4L10 78.6c-.1.1-.2.3-.1.5 0 .2.2.3.3.4l2 .6c1.5.5 2.9.7 4.5.7h.1c2.8 0 5.6-.8 7.9-2.4l1.8-1.3c1.7-1.3 3.1-2.8 4.2-4.7 1.4-2.5 2-5.5 1.6-8.4l-.5-3.7 1.3-1.6L39 53l12.4-12.4 3.5.4c5.1 1 10.3-1.3 13.3-5.7zm-13.3 4.9l-3.7-.4c-.2 0-.3 0-.4.1L38.2 52.5l-6.1 5.8-1.4 1.7c-.1.1-.1.3-.1.4l.5 3.9c.3 2.7-.1 5.4-1.5 7.8-.9 1.7-2.3 3.1-3.9 4.3L24 77.6c-2.2 1.5-4.7 2.3-7.3 2.3-.9 0-1.8-.1-2.7-.3l-2.7-.7 10.5-10.4c.1-.1.1-.2.1-.3 0-.1-.1-.3-.1-.4l-6.1-6.1c-.2-.2-.5-.2-.7 0L4.5 72l-.6-2.8c-.7-3.5-.1-7.1 2-10l1-1.6c1.2-1.6 2.6-2.9 4.2-3.9l.2-.1c2.4-1.4 5.1-1.9 7.9-1.5l3.9.5c.2 0 .3 0 .4-.1l19.9-19.9c.1-.1.2-.3.1-.4l-.5-4c-.3-2.6.1-5.4 1.5-7.8.9-1.7 2.3-3.1 3.9-4.3l1.8-1.3c2.9-2 6.6-2.7 10.1-2l2.8.6L52.7 24c-.1.1-.1.2-.1.4s.1.3.1.4l6.1 6.1c.2.2.5.2.7 0L70 20.4l.6 2.8c.7 3.5 0 7.2-2.1 10.2l-.9 1.3c-3.1 4.1-7.8 6.2-12.7 5.5z" transform="translate(4)"/></g></g></g></g></g></g></svg>