<svg width="24" height="24" viewBox="0 0 24 24" xmlns="http://www.w3.org/2000/svg"><title>link</title><g fill="none" fill-rule="evenodd"><path d="M0 0h24v24H0z"/><path d="M14.561 9.299c.29.29.29.762.002 1.05l-4.214 4.214a.744.744 0 1 1-1.052-1.052l4.214-4.215a.74.74 0 0 1 1.05.003zM9.3 17.719a2.235 2.235 0 0 1-3.157 0 2.234 2.234 0 0 1 0-3.158l2.104-2.105a.744.744 0 1 0-1.052-1.052l-2.105 2.105a3.723 3.723 0 0 0 0 5.262 3.723 3.723 0 0 0 5.262 0l2.105-2.105a.744.744 0 0 0-1.052-1.052l-2.105 2.104zm9.472-7.368a3.723 3.723 0 0 0 0-5.262 3.723 3.723 0 0 0-5.262 0l-2.105 2.105a.744.744 0 0 0 1.052 1.052l2.105-2.104a2.234 2.234 0 0 1 3.157 0c.87.87.871 2.286 0 3.157l-2.104 2.105a.744.744 0 0 0 1.052 1.052l2.105-2.105z" fill="currentColor" fill-rule="nonzero"/></g></svg>