<svg width="24" height="24" viewBox="0 0 24 24" xmlns="http://www.w3.org/2000/svg"><title>list-plus</title><g fill="none" fill-rule="evenodd"><path d="M0 0h24v24H0z"/><path d="M15.273 16.457c0 .4-.323.725-.728.725a.727.727 0 0 1-.727-.725V15h-1.457a.727.727 0 1 1 0-1.455h1.457V12.09a.727.727 0 1 1 1.455 0v1.456h1.456a.727.727 0 1 1 0 1.455h-1.456v1.457zM20 14.273a5.455 5.455 0 0 1-9.928 3.122l-.979-.49-1.13.564a.727.727 0 0 1-.65 0l-1.13-.564-1.13.564A.727.727 0 0 1 4 16.819V4.453C4 3.651 4.65 3 5.455 3h10.18c.805 0 1.456.65 1.456 1.454v4.993A5.454 5.454 0 0 1 20 14.273zm-4.364-9.818H5.455V15.64l.402-.2a.727.727 0 0 1 .65 0l1.137.568 1.122-.568a.727.727 0 0 1 .436-.068 5.48 5.48 0 0 1-.002-2.19H7.637a.726.726 0 0 1-.728-.727c0-.402.328-.728.728-.728H9.72a5.454 5.454 0 0 1 5.918-2.8c0-2.377-.002-4.472-.002-4.472zm-8.727 5.09c0-.401.323-.727.727-.727h1.456c.4 0 .726.323.726.727a.725.725 0 0 1-.726.728H7.636a.725.725 0 0 1-.727-.728zm0-2.909c0-.401.327-.727.724-.727h5.825a.727.727 0 0 1 0 1.455H7.633a.724.724 0 0 1-.724-.728zm7.636 11.637a4 4 0 1 0 0-8 4 4 0 0 0 0 8z" fill-rule="nonzero" fill="currentColor"/></g></svg>
