<svg id="Layer_1" xmlns="http://www.w3.org/2000/svg" viewBox="-5 5 90 60"><style>.st1{display:none}.st2{display:inline}</style><g id="ZZ-Elements"><g id="Elements_x2F_Category-Cards" transform="translate(-63 -1853)"><g id="Math" transform="translate(47 1811)"><g id="Category---Activity-Copy"><g id="Group" transform="translate(16 42)"><path id="Rectangle-7" fill="none" d="M0 0h80v80H0z"/><g id="Page-1" class="st1"><path id="Fill-1" class="st2" d="M74.3 0H5.7C2.6 0 0 2.6 0 5.7v68.6C0 77.4 2.6 80 5.7 80h68.6c3.1 0 5.7-2.6 5.7-5.7V5.7C80 2.6 77.4 0 74.3 0zm1.9 5.7v32.4H41.9V3.8h32.4c1 0 1.9.9 1.9 1.9zM5.7 3.8h32.4v34.3H3.8V5.7c0-1 .9-1.9 1.9-1.9zM3.8 74.3V41.9h34.3v34.3H5.7c-1 0-1.9-.9-1.9-1.9zm70.5 1.9H41.9V41.9h34.3v32.4c0 1-.9 1.9-1.9 1.9z"/><path id="Fill-2" class="st2" d="M30.2 55.2h-7.6v-7.6h-3.8v7.6h-7.7V59h7.7v7.7h3.8V59h7.6z"/><path id="Fill-3" class="st2" d="M11.1 23.5h19.1v-3.8H11.1z"/><path id="Fill-4" class="st2" d="M49 65.7h19v-3.8H49z"/><path id="Fill-5" class="st2" d="M49 55.2h19v-3.8H49z"/><path id="Fill-6" class="st2" d="M50.4 27l2.6 2.7 5.5-5.4 5.3 5.4 2.7-2.7-5.4-5.4 5.4-5.4-2.7-2.7-5.3 5.4-5.5-5.4-2.6 2.7 5.3 5.4z"/></g><g id="Page-1_1_"><path d="M74.7 0H5.3C2.4 0 0 2.4 0 5.3v69.5C0 77.6 2.4 80 5.3 80h69.5c2.9 0 5.3-2.4 5.3-5.3V5.3C80 2.4 77.6 0 74.7 0zM38.6 77.2H5.3c-1.3 0-2.4-1.1-2.4-2.4V41.4h35.7v35.8zm0-38.6H2.8V5.3C2.8 4 4 2.8 5.3 2.8h33.3v35.8zm38.6 36.1c0 1.3-1.1 2.4-2.4 2.4H41.4V41.4h35.7v33.3zm0-36.1H41.4V2.8h33.3c1.3 0 2.4 1.1 2.4 2.4v33.4z"/><path d="M29.6 55.9h-7.7v-7.7H19v7.7h-7.8v2.8H19v7.8h2.9v-7.8h7.7zM11.2 19.9h18.3v2.8H11.2zM49.6 62.7h18.2v2.8H49.6zM49.6 52.1h18.2v2.8H49.6zM66.1 15.9l-2-2-5.4 5.4-5.5-5.4-2 2 5.4 5.5-5.4 5.4 2 2.1 5.5-5.5 5.4 5.5 2-2.1-5.4-5.4z"/></g><g id="New" class="st1"><path class="st2" d="M80 4.5C80 2 78 0 75.5 0h-71C2 0 0 2 0 4.5v71C0 78 2 80 4.5 80h71c2.5 0 4.5-2 4.5-4.5v-71zM39.5 78.9h-35c-1.9 0-3.4-1.5-3.4-3.4v-35h38.4v38.4zm0-39.4H1.1v-35c0-1.9 1.5-3.4 3.4-3.4h35v38.4zm39.4 36c0 1.9-1.5 3.4-3.4 3.4h-35V40.5h38.4v35zm0-36H40.5V1.1h35c1.9 0 3.4 1.5 3.4 3.4v35z"/><path class="st2" d="M28.4 57.2h-7.9v-7.9h-1.1v7.9h-7.9v1.1h7.9v7.9h1.1v-7.9h7.9zM11.5 20.4h16.9v1.1H11.5zM50.7 64.1h16.9v1.1H50.7zM50.7 53.3h16.9v1.1H50.7zM59.9 21l5.5-5.6-.7-.8-5.6 5.5-5.6-5.5-.7.8 5.5 5.6-5.6 5.5.8.8 5.6-5.6 5.5 5.6.8-.8z"/></g></g></g></g></g></g></svg>