<svg xmlns="http://www.w3.org/2000/svg" width="24" height="24" viewBox="0 0 24 24"><path d="M12 23C5.925 23 1 18.075 1 12S5.925 1 12 1s11 4.925 11 11-4.925 11-11 11zm0-1.833a9.167 9.167 0 1 0 0-18.334 9.167 9.167 0 0 0 0 18.334z"/><path d="M13.271 17.78a1.109 1.109 0 1 1-2.217.067 1.109 1.109 0 0 1 2.217-.067zm.309-4.018l-1.636 1.636c.09-.018.182-.018.273-.018.617 0 1.2.236 1.636.672a.921.921 0 0 0 1.308 0 .921.921 0 0 0 0-1.309 4.14 4.14 0 0 0-1.581-.981zm4.764-8.489l-2.11 2.109a11.087 11.087 0 0 0-4.017-.746A10.988 10.988 0 0 0 4.4 9.872a.921.921 0 0 0 0 1.309.923.923 0 0 0 1.31 0 9.13 9.13 0 0 1 6.507-2.69 9.37 9.37 0 0 1 2.564.363l-1.345 1.345c-.4-.073-.8-.11-1.2-.11-2.036 0-3.945.782-5.363 2.218a.921.921 0 0 0 0 1.309.923.923 0 0 0 1.31 0 5.729 5.729 0 0 1 3.508-1.655l-6.25 6.215a.921.921 0 0 0 0 1.309.923.923 0 0 0 1.31 0L19.653 6.58a.922.922 0 0 0 0-1.308.922.922 0 0 0-1.31 0l.001.001zm-2.2 5.907l-1.364 1.364c.55.275 1.054.637 1.49 1.072a.921.921 0 0 0 1.31 0 .921.921 0 0 0 0-1.308 7.87 7.87 0 0 0-1.436-1.127v-.001zm3.89-1.308a12.36 12.36 0 0 0-1.4-1.182l-1.327 1.328c.509.327.981.727 1.418 1.163a.921.921 0 0 0 1.309 0 .921.921 0 0 0 0-1.309z"/></svg>