<svg width="24" height="24" viewBox="0 0 24 24" xmlns="http://www.w3.org/2000/svg"><title>pen</title><path d="M4 19.09c0-.442.357-.8.799-.8H19.2c.441 0 .799.355.799.8 0 .442-.357.8-.799.8H4.8a.797.797 0 0 1-.799-.8zM18.29 4.467L19.426 5.6a1.6 1.6 0 0 1-.003 2.263l-7.918 7.919-2.978.747c-.858.215-1.378-.309-1.164-1.164l.748-2.978 7.918-7.918a1.602 1.602 0 0 1 2.263-.002zm-7.07 9.335l-1.13-1.131-.535.535-.376 1.506 1.5-.368.542-.542zm5.374-5.373l-1.132-1.134-4.24 4.244 1.13 1.131 4.242-4.241z" fill-rule="nonzero" fill="currentColor"/></svg>
