<svg id="Layer_1" xmlns="http://www.w3.org/2000/svg" viewBox="0 0 67 80"><style>.st0{fill:none}.st0,.st1{display:none}.st2{display:inline}</style><g id="ZZ-Elements"><g id="Elements_x2F_Category-Cards" transform="translate(-72 -1653)"><g id="Picture-Books" transform="translate(49 1611)"><g id="Category---Activity-Copy"><g id="Group" transform="translate(16 42)"><path id="Rectangle-7" class="st0" d="M-.9-.9h82.3v82.3H-.9z"/><path class="st0" d="M.2.2h80.2v80.2H.2z"/><g id="Page-1" transform="translate(7)" class="st1"><path id="Fill-1" class="st2" d="M59.7 4C61.5 4 63 5.5 63 7.3v65.3c0 1.8-1.5 3.3-3.3 3.3h-49c-1.8 0-3.3-1.5-3.3-3.3V7.3C7.5 5.5 9 4 10.7 4h49zm0-4.9h-49c-4.5 0-8.2 3.7-8.2 8.2v65.3c0 4.5 3.7 8.2 8.2 8.2h49c4.5 0 8.2-3.7 8.2-8.2V7.3c0-4.5-3.7-8.2-8.2-8.2z"/><path id="Fill-2" class="st2" d="M8.3 15.4H1.8C.5 15.4-.6 14.3-.6 13s1.1-2.4 2.4-2.4h6.5c1.3 0 2.4 1.1 2.4 2.4s-1.1 2.4-2.4 2.4z"/><path id="Fill-3" class="st2" d="M8.3 33.4H1.8C.5 33.4-.6 32.3-.6 31s1.1-2.4 2.4-2.4h6.5c1.3 0 2.4 1.1 2.4 2.4s-1.1 2.4-2.4 2.4z"/><path id="Fill-4" class="st2" d="M8.3 51.3H1.8c-1.3 0-2.4-1.1-2.4-2.4 0-1.3 1.1-2.4 2.4-2.4h6.5c1.3 0 2.4 1.1 2.4 2.4 0 1.3-1.1 2.4-2.4 2.4z"/><path id="Fill-5" class="st2" d="M8.3 69.3H1.8c-1.3 0-2.4-1.1-2.4-2.4s1.1-2.4 2.4-2.4h6.5c1.3 0 2.4 1.1 2.4 2.4s-1.1 2.4-2.4 2.4z"/><path id="Fill-6" class="st2" d="M55.6 62H14.8c-.9 0-1.6-.7-1.6-1.6V19.5c0-.9.7-1.6 1.6-1.6h40.8c.9 0 1.6.7 1.6 1.6v40.8c.1.9-.7 1.7-1.6 1.7zm-39.1-3.3H54V21.2H16.5v37.5z"/><path id="Fill-7" class="st2" d="M54.8 54.6c-.4 0-.7-.1-1-.4l-7.2-5.7-5.5 4.1c-.7.5-1.6.4-2.1-.2l-12.1-12-10.3 7.4c-.7.5-1.8.4-2.3-.4-.5-.7-.4-1.8.4-2.3L26.1 37c.6-.5 1.5-.4 2.1.2l12.1 12.1 5.4-4c.6-.4 1.4-.4 2 0l8.2 6.5c.7.6.8 1.6.3 2.3-.4.3-.9.5-1.4.5z"/><path id="Fill-8" class="st2" d="M44.2 36.7c-3.1 0-5.7-2.6-5.7-5.7s2.6-5.7 5.7-5.7 5.7 2.6 5.7 5.7-2.6 5.7-5.7 5.7zm0-8.2c-1.3 0-2.4 1.1-2.4 2.4s1.1 2.4 2.4 2.4c1.3 0 2.4-1.1 2.4-2.4s-1.1-2.4-2.4-2.4z"/></g><g id="Page-1_1_"><path d="M59.7.2h-49C6.8.2 3.6 3.4 3.6 7.3v65.3c0 3.9 3.2 7.1 7.1 7.1h49c3.9 0 7.1-3.2 7.1-7.1V7.3c0-3.9-3.2-7.1-7.1-7.1zM64 72.6c0 2.3-2 4.3-4.3 4.3h-49c-2.3 0-4.3-2-4.3-4.3V7.3C6.5 5 8.4 3 10.7 3h49C62 3 64 5 64 7.3v65.3z" transform="translate(7)"/><path d="M8.3 11.1H1.8C.7 11.1-.1 12-.1 13s.9 1.9 1.9 1.9h6.5c1.1 0 1.9-.9 1.9-1.9s-.8-1.9-1.9-1.9zM8.3 29H1.8c-1.1 0-1.9.9-1.9 1.9 0 1.1.9 1.9 1.9 1.9h6.5c1.1 0 1.9-.9 1.9-1.9 0-1-.8-1.9-1.9-1.9zM8.3 47H1.8c-1.1 0-1.9.9-1.9 1.9s.9 1.9 1.9 1.9h6.5c1.1 0 1.9-.9 1.9-1.9S9.4 47 8.3 47zM8.3 64.9H1.8c-1.1 0-1.9.9-1.9 1.9 0 1.1.9 1.9 1.9 1.9h6.5c1.1 0 1.9-.9 1.9-1.9 0-1-.8-1.9-1.9-1.9zM55.6 18.4H14.8c-.6 0-1.1.5-1.1 1.1v40.8c0 .6.5 1.1 1.1 1.1h40.8c.6 0 1.1-.5 1.1-1.1V19.5c0-.6-.5-1.1-1.1-1.1zm-1.1 40.8H15.9V20.6h38.6v38.6z" transform="translate(7)"/><path d="M54.1 53.9c.2.2.5.2.7.2.3 0 .7-.2.9-.4.2-.2.3-.5.2-.8 0-.3-.2-.6-.4-.8l-8.2-6.5c-.4-.3-1-.3-1.4 0l-5.8 4.3-12.2-12.4c-.4-.4-1-.4-1.4-.1L15 45.5c-.2.2-.4.4-.5.7 0 .3 0 .6.2.8.4.5 1.1.6 1.6.3L27 39.7l12.4 12.4c.4.4 1 .4 1.5.1l5.8-4.4 7.4 6.1zM44.2 25.8c-2.9 0-5.2 2.3-5.2 5.2s2.3 5.2 5.2 5.2c2.9 0 5.2-2.3 5.2-5.2s-2.3-5.2-5.2-5.2zm0 8.1c-1.6 0-3-1.3-3-3 0-1.6 1.3-3 3-3 1.6 0 3 1.3 3 3s-1.4 3-3 3z" transform="translate(7)"/></g><g class="st1"><path class="st2" d="M75.1 5.6c0-3.6-2.9-6.5-6.5-6.5h-52C13-.9 10.1 2 10.1 5.6v69.3c0 3.6 2.9 6.5 6.5 6.5h52c3.6 0 6.5-2.9 6.5-6.5V5.6zm-.9 69.3c0 3.1-2.6 5.6-5.6 5.6h-52c-3.1 0-5.6-2.6-5.6-5.6V5.6C11 2.5 13.6 0 16.6 0h52c3.1 0 5.6 2.6 5.6 5.6v69.3z"/><path class="st2" d="M7.1 12.1H14c.2 0 .4-.2.4-.4s-.2-.4-.4-.4H7.1c-.2 0-.4.2-.4.4s.2.4.4.4zM7.1 31.1H14c.2 0 .4-.2.4-.4s-.2-.4-.4-.4H7.1c-.2 0-.4.2-.4.4 0 .3.2.4.4.4zM7.1 50.2H14c.2 0 .4-.2.4-.4s-.2-.4-.4-.4H7.1c-.2 0-.4.2-.4.4s.2.4.4.4zM7.1 69.2H14c.2 0 .4-.2.4-.4s-.2-.4-.4-.4H7.1c-.2 0-.4.2-.4.4s.2.4.4.4zM20.9 62.3h43.3c.2 0 .4-.2.4-.4V18.6c0-.2-.2-.4-.4-.4H20.9c-.2 0-.4.2-.4.4v43.3c.1.2.2.4.4.4zm.4-43.3h42.6v42.6H21.3V19z"/><path class="st2" d="M47 52.7c.1.1.2.2.5 0l6.7-5 9.5 6.8c.1.1.4.1.5-.1.1-.1.1-.2.1-.3 0-.1-.1-.2-.1-.2L54.4 47c-.2-.2-.3-.1-.4 0l-6.7 5-13.7-13.7c-.1-.1-.3-.2-.5 0L21 47c-.1.1-.1.1-.1.2s0 .2.1.3c.1.1.2.2.3.2.1 0 .1 0 .2-.1l11.9-8.5L47 52.7zM52.1 26c-2.6 0-4.7 2.1-4.7 4.7s2.1 4.7 4.7 4.7 4.7-2.1 4.7-4.7-2.1-4.7-4.7-4.7zm0 8.7c-2.2 0-4-1.8-4-4s1.8-4 4-4 4 1.8 4 4-1.8 4-4 4z"/></g></g></g></g></g></g></svg>