<svg xmlns="http://www.w3.org/2000/svg" width="120" height="120" viewBox="0 0 120 120"><path d="M94.723 11.232c-.024-.327-.303-.662-.735-.588-15.08 2.687-32.118 11.149-41.234 23.843-.13.18.048.36.228.36-.465.154-.62.955-.048 1.085 3.422.784 6.788 1.723 10.103 2.851-1.732-.155-3.47-.294-5.21-.433-1.7-.139-3.823-.661-5.514-.351-2.949.547-4.803 4.811-5.865 7.188-3.962 8.864-3.121 18.926-.36 27.994a40.704 40.704 0 0 0-.637 2.883c-4.264.008-8.52.058-12.767.294-.228-.033-.342-.066-.457.016-1.569 1.053-2.337 2.842-1.634 4.68.629 1.666 2.46 2.933 4.255 2.68.344 1.208.393 2.474.008 3.675a.469.469 0 0 0 .033.367c-6.502.393-12.84 7.05-11.542 13.756 1.528 7.875 12.007 8.716 18.37 8.496 6.813-.246 17.374-1.52 20.707-8.544 3.856-8.12-5.636-12.8-11.82-14.744-.416-.89-.538-1.764-.228-2.671 1.911.58 4.158-.13 5.211-1.887 1.045-1.756.564-3.954-.874-5.318.115-.335-.065-.768-.522-.768a1310.42 1310.42 0 0 0-8.079-.033c.45-1.461.948-2.9 1.495-4.32 10.055-4.395 19.171-10.26 27.11-17.554A96.39 96.39 0 0 0 85.575 42.41c2.94-3.774 5.84-7.556 5.603-12.522.115-.303.024-.686-.368-.8a98.92 98.92 0 0 0-3.48-.94c1.283.082 2.565.164 3.848.237.253.016.474-.188.547-.425 1.747-5.4 3.12-10.937 3.578-16.606.025-.327-.473-.408-.58-.122z"/></svg>