<svg xmlns="http://www.w3.org/2000/svg" width="24" height="24" viewBox="0 0 24 24">
    <g fill="currentColor" fill-rule="nonzero">
        <path d="M7.455 9.498L6 8.533V6.636c0-.401.326-.727.727-.727h4.364a3.6 3.6 0 0 1 2.182.727A3.636 3.636 0 0 1 16.909 3h1.455c.401 0 .727.326.727.727V5.91h2.182c.401 0 .727.326.727.727v10.91a.727.727 0 0 1-.727.727h-4.364a2.182 2.182 0 0 0-2.102 1.636.727.727 0 0 1-.705.546h-.204a.727.727 0 0 1-.705-.546 2.182 2.182 0 0 0-2.102-1.636H6.727A.727.727 0 0 1 6 17.545v-1.153l1.455-.993v1.42h3.636a3.607 3.607 0 0 1 2.182.726v-8a2.182 2.182 0 0 0-2.182-2.181H7.455v2.134zm7.272-2.862v8a3.6 3.6 0 0 1 2.182-.727h.727V4.455h-.727a2.182 2.182 0 0 0-2.182 2.181zm5.818.728h-1.454v7.272a.727.727 0 0 1-.727.728h-1.455a2.182 2.182 0 0 0-2.182 2.181 3.607 3.607 0 0 1 2.182-.727h3.636V7.364z"/>
        <path d="M3.42 15.866c.12.06.24.08.36.08.14 0 .3-.04.42-.14l4.04-2.76c.2-.14.32-.38.32-.62s-.12-.48-.34-.62l-4.04-2.68c-.24-.16-.52-.16-.78-.04-.24.14-.4.38-.4.66v5.44c.02.3.16.56.42.68z"/>
    </g>
</svg>
