<svg xmlns="http://www.w3.org/2000/svg" width="24" height="24" viewBox="0 0 24 24">
    <g fill="currentColor" fill-rule="nonzero" transform="translate(3 4)">
        <path d="M8.638 4.009v-.013S6.765 1.73 4.757 1.73C2.87 1.73 1.88 2.77 1.73 2.932v10.292a7.42 7.42 0 0 1 3.037-.683c1.065.012 2.885.765 3.862 1.207v.01c1.889-.803 3.19-1.209 3.901-1.217a7.42 7.42 0 0 1 3.038.683V2.932c-.151-.163-1.17-1.202-3.027-1.202-1.892 0-3.76 2.113-3.903 2.279zM4.768 14.27c-1.698 0-3.359 1.106-3.396 1.133a.865.865 0 0 1-1.372-.7V2.595c0-.185.059-.364.168-.513C.382 1.791 1.858 0 4.757 0c1.4 0 2.77.622 3.892 1.931C9.753.643 11.139 0 12.54 0c2.841 0 4.374 1.79 4.588 2.082.11.149.168.328.168.513v12.108a.865.865 0 0 1-1.372.7c-.037-.027-1.562-1.133-3.395-1.133-1.824 0-3.394 1.148-3.414 1.16a.849.849 0 0 1-.467.14.849.849 0 0 1-.467-.14c-.02-.012-1.53-1.16-3.415-1.16z"/>
        <path d="M9.922 10.454a.522.522 0 0 1 0-1.043c.66 0 1.217-.62 1.217-1.411 0-.79-.558-1.41-1.217-1.41a.522.522 0 1 1 0-1.044c1.261 0 2.26 1.11 2.26 2.454s-.999 2.454-2.26 2.454zm0 1.546a.522.522 0 0 1 0-1.043 2.957 2.957 0 1 0 0-5.914.522.522 0 1 1 0-1.043 4 4 0 0 1 0 8z"/>
        <rect width="5" height="4" x="2.5" y="6" rx="1.5"/>
        <path d="M8 5.021v5.958a1 1 0 0 1-1.697.717L3.238 8.717a1 1 0 0 1 0-1.434l3.065-2.979A1 1 0 0 1 8 5.021z"/>
    </g>
</svg>
