<svg xmlns="http://www.w3.org/2000/svg" width="24" height="24"><g fill="none" fill-rule="evenodd"><path d="M0 0h24v24H0z"/><path fill="currentColor" fill-rule="nonzero" d="M16.364 3h-1.455a3.636 3.636 0 0 0-3.636 3.636A3.6 3.6 0 0 0 9.09 5.91H4.727A.727.727 0 0 0 4 6.636v10.91c0 .401.326.727.727.727h4.364c.99.005 1.854.677 2.102 1.636a.727.727 0 0 0 .705.546h.204a.727.727 0 0 0 .705-.546 2.182 2.182 0 0 1 2.102-1.636h4.364a.727.727 0 0 0 .727-.728V6.636a.727.727 0 0 0-.727-.727H17.09V3.727A.727.727 0 0 0 16.364 3zm-3.637 3.636c0-1.205.977-2.181 2.182-2.181h.727v9.454h-.727a3.6 3.6 0 0 0-2.182.727v-8zM9.091 16.818H5.455V7.364H9.09c1.205 0 2.182.976 2.182 2.181v8a3.607 3.607 0 0 0-2.182-.727zm9.454-9.454v9.454H14.91a3.607 3.607 0 0 0-2.182.727c0-1.205.977-2.181 2.182-2.181h1.455a.727.727 0 0 0 .727-.728V7.364h1.454z"/></g></svg>