<svg id="Layer_1" xmlns="http://www.w3.org/2000/svg" viewBox="0 0 80 74"><style>.st0{display:none}.st1{display:inline}</style><g id="ZZ-Elements"><g id="Elements_x2F_Category-Cards" transform="translate(-67 -106)"><g id="Read-out-loud" transform="translate(51 61)"><g id="Category---Activity-Copy"><g id="Page-1" transform="translate(16 45)" class="st0"><path d="M64 43.8l-2.3.9c-2.4 1-4.9 1.5-7.6 1.5-7.2 0-13.8-3.6-17.1-9.2l20.8-8.5-9-22.2c-1.3-3.2-4.3-5.2-7.7-5.2-1.1 0-2.1.2-3.2.6l-31 12.6C2.6 16 .6 20.9 2.3 25.2l3.7 9c-2.9 2.1-4.8 5.4-4.8 9.2 0 6.2 5.1 11.3 11.3 11.3.6 0 1.2 0 1.8-.1l5.5 13.5c1.3 3.2 4.3 5.2 7.7 5.2 1.1 0 2.1-.2 3.2-.6l31-12.6c2.1-.8 3.7-2.4 4.6-4.5.9-2.1.9-4.3 0-6.4L64 43.8zm-2.4 9.9c-.4.8-1 1.5-1.9 1.9l-31 12.6c-.4.2-.9.3-1.3.3-1.4 0-2.7-.8-3.2-2.1L18.7 53l-1.9-4.7c-1.1 1.1-2.7 1.8-4.4 1.8h-.2C8.8 49.9 6 47 6 43.6c0-1.7.7-3.3 1.8-4.5 1.1-1.2 2.7-1.9 4.5-1.9l-1.9-4.7-3.6-8.9c-.7-1.8.1-3.8 1.9-4.5l31-12.6c.4-.2.9-.3 1.3-.3 1.4 0 2.7.8 3.2 2.1l7.2 17.6-21 8.5.9 2.3c3.5 8.6 12.7 14.4 22.8 14.4 2.5 0 4.9-.3 7.1-1l.4 1c.4.8.4 1.8 0 2.6z" id="Fill-1"/><path d="M59.7 32.4v4.9c5.2 0 9.3-4.2 9.3-9.4s-4.2-9.4-9.3-9.4v4.9c2.4 0 4.4 2 4.4 4.4 0 2.6-2 4.6-4.4 4.6z" id="Fill-2"/><path d="M58.5 6.6v4.9c9 0 16.3 7.4 16.3 16.4 0 5.6-2.9 10.7-7.5 13.7l1.9 4.6c6.5-3.8 10.5-10.7 10.6-18.3 0-11.7-9.6-21.2-21.3-21.3z" id="Fill-3"/><path d="M39.5 21.1c0 3-2.5 5.5-5.5 5.5s-5.5-2.5-5.5-5.5 2.5-5.5 5.5-5.5 5.5 2.4 5.5 5.5" id="Fill-4"/></g><g id="Page-1_1_"><path d="M10.8 54.2c.6 0 1.1 0 1.7-.1l.8-.1 6 14.8c1.2 2.9 4 4.8 7.1 4.8 1 0 2-.2 2.9-.6l32.3-13.2c1.9-.8 3.4-2.2 4.2-4.1.8-1.9.8-4 0-5.9L64 45.1l-1.4.6c-2.6 1.1-5.4 1.6-8.3 1.6-7.9 0-15-3.9-18.8-10.1l-.6-1 21.9-8.9-9.1-22.2c-1.2-2.9-4-4.8-7.1-4.8-1 0-2 .2-2.9.6L5.3 14c-3.9 1.6-5.8 6.1-4.2 10l4.1 10.1-.7.5C1.7 36.7 0 40 0 43.4c0 6 4.8 10.8 10.8 10.8zM5.3 38.1c1.1-1.1 2.5-1.9 4-2.2L4 22.9c-1-2.4.2-5.1 2.5-6L38.8 3.7c.6-.2 1.1-.3 1.7-.3 1.9 0 3.6 1.1 4.3 2.9l7.9 19.3-21.9 8.9.6 1.4c3.5 8.6 12.7 14.4 22.8 14.4 2.5 0 4.9-.3 7.2-1l.9-.3.8 1.9c.5 1.2.5 2.4 0 3.5s-1.4 2-2.5 2.5L28.2 70.1c-.6.2-1.1.3-1.7.3-1.9 0-3.6-1.1-4.3-2.9L15 49.9c-1.2.8-2.7 1.2-4.2 1.2h-.2C6.4 51 3 47.5 3 43.4c.1-2 .8-3.9 2.3-5.3zM66.3 33.4c1.6-1.7 2.5-3.8 2.5-6.2 0-4.5-3.3-8.2-7.7-8.7v3.1c2.6.5 4.6 2.8 4.6 5.6s-2 5.1-4.6 5.6v3.1c2-.3 3.8-1.1 5.2-2.5z" transform="translate(16 45)"/><path d="M80 27.2C80 15.9 71.1 6.6 59.9 6v3.1c4.4.3 8.6 2.1 11.7 5.3 3.4 3.4 5.3 8 5.3 12.8 0 5.9-2.8 11.3-7.6 14.7l1.2 2.9c6-3.9 9.5-10.4 9.5-17.6zM33.3 15.3c-2.6 0-4.7 2.1-4.7 4.7s2.1 4.7 4.7 4.7S38 22.6 38 20s-2.1-4.7-4.7-4.7z" transform="translate(16 45)"/></g><g class="st0"><path d="M29.3 97.9l6.5 15.8c1 2.6 3.5 4.2 6.3 4.2.9 0 1.7-.2 2.6-.5L77.6 104c1.7-.7 3-2 3.7-3.6.7-1.7.7-3.5 0-5.2l-1.5-3.8-.5.2c-2.8 1.1-5.8 1.7-8.9 1.7-8.4 0-16-4.1-20-10.8l-1.3-2.1 22.4-9.1-8.8-21.6c-1-2.6-3.5-4.2-6.3-4.2-.9 0-1.7.2-2.6.5L21 59.5c-3.5 1.4-5.1 5.4-3.7 8.8l4.5 11.1-1.4 1c-2.6 1.9-4.2 4.9-4.2 8.1 0 5.5 4.4 9.9 9.9 9.9.5 0 1.1 0 1.6-.1l1.6-.4zm-3.4-.6c-4.8-.1-8.7-4.1-8.7-8.9 0-2.3.9-4.5 2.5-6.2 1-1 2.1-1.7 3.4-2.2l-4.9-12.1c-.6-1.4-.6-3 0-4.4.6-1.4 1.7-2.5 3.1-3.1l33-13.4c.7-.3 1.4-.4 2.2-.4 2.4 0 4.4 1.4 5.3 3.6l8.4 20.7L47.9 80l.2.5c3.4 8.4 12.4 14 22.2 14 2.4 0 4.8-.3 7-1l1.8-.5 1.1 2.8c.6 1.4.6 3 0 4.4-.6 1.4-1.7 2.5-3.1 3.1l-32.9 13.4c-.7.3-1.4.4-2.2.4-2.4 0-4.4-1.4-5.3-3.6l-6.9-16.9c-1.2.5-2.4.8-3.7.8l-.2-.1zM81.8 77.4c1.5-1.5 2.3-3.4 2.3-5.5 0-3.6-2.4-6.6-5.7-7.6v1.1c2.7.9 4.7 3.5 4.7 6.5s-2 5.6-4.7 6.5v1.1c1.3-.4 2.5-1.1 3.4-2.1z"/><path d="M95.5 71.9c0-10.6-8-19.3-18.3-20.4v1c4.4.5 8.5 2.4 11.6 5.6 3.7 3.7 5.7 8.6 5.7 13.8 0 6.1-2.8 11.7-7.5 15.3l.4 1c5.1-3.9 8.1-9.8 8.1-16.3zM49 67.2c-1.5 0-2.7-1.2-2.7-2.7 0-1.5 1.2-2.7 2.7-2.7 1.5 0 2.7 1.2 2.7 2.7 0 1.5-1.2 2.7-2.7 2.7z"/></g></g></g></g></g></svg>