<svg xmlns="http://www.w3.org/2000/svg" width="24" height="24" viewBox="0 0 24 24">
    <g fill="none" fill-rule="evenodd">
        <path d="M0 0h24v24H0z"/>
        <g fill="#4A90E2">
            <path d="M7.961 17.507c0 1.239-2.423 1.239-2.423 0v-6.785c0-.969 2.423-.915 2.423 0v6.785zM15.715 18.422c1.508-.053 1.454-1.4.54-1.4h-.7c-.27 0-.378-.376 0-.376H16.9c.7-.054 1.185-1.777 0-1.777h-.915c-.377 0-.377-.431 0-.431h1.185c1.13 0 1.453-1.831.16-1.831h-.968c-.431 0-.377-.431 0-.431H17.6c1.185 0 1.185-1.723 0-1.723h-4.684c.43-1.185.754-1.885.377-3.016-.593-2.046-2.208-2.638-1.939-.377.161 1.777-1.346 2.908-2.854 3.662v6.784c2.154 1.024 4.792 1.078 7.215.916z"/>
        </g>
    </g>
</svg>
