<svg width="24" height="23" viewBox="0 0 24 23" xmlns="http://www.w3.org/2000/svg"><title>refresh</title><path d="M12 4c2.453 0 4.722 1.1 6.222 2.886V5.778a.889.889 0 1 1 1.778 0v3.555c0 .491-.398.89-.889.89h-.397a.883.883 0 0 1-.09 0h-3.068a.889.889 0 1 1 0-1.779h1.624A6.347 6.347 0 0 0 12 5.778a6.223 6.223 0 0 0-6.174 5.446.889.889 0 0 1-1.765-.22A8.001 8.001 0 0 1 12 4zM8.444 15.556H6.821c1.145 1.632 3.072 2.666 5.179 2.666a6.223 6.223 0 0 0 6.173-5.433.889.889 0 1 1 1.764.222A8.001 8.001 0 0 1 12 20a8.128 8.128 0 0 1-6.222-2.886v1.108a.889.889 0 1 1-1.778 0v-3.555c0-.491.398-.89.889-.89h3.555a.889.889 0 1 1 0 1.779z" fill-rule="nonzero" fill="currentColor"/></svg>