<svg width="24" height="24" viewBox="0 0 24 24" xmlns="http://www.w3.org/2000/svg"><g fill="none" fill-rule="evenodd"><path d="M0 0h24v24H0z"/><path d="M2.415 2A.416.416 0 0 0 2 2.417V5.75c0 .23.186.417.415.417 8.475 0 15.369 6.915 15.369 15.416 0 .23.186.417.415.417h3.323c.23 0 .416-.187.416-.417C21.938 10.785 13.18 2 2.415 2z" fill="currentColor" fill-rule="nonzero"/><path d="M2.415 7.833A.416.416 0 0 0 2 8.25v3.333c0 .23.186.417.415.417 5.268 0 9.554 4.3 9.554 9.583 0 .23.186.417.415.417h3.323c.23 0 .416-.187.416-.417 0-7.581-6.15-13.75-13.708-13.75z" fill="currentColor" fill-rule="nonzero"/><path d="M4.908 16.167A2.915 2.915 0 0 0 2 19.083 2.915 2.915 0 0 0 4.908 22a2.915 2.915 0 0 0 2.907-2.917 2.915 2.915 0 0 0-2.907-2.916z" fill="currentColor" fill-rule="nonzero"/></g></svg>