<svg id="Layer_1" xmlns="http://www.w3.org/2000/svg" viewBox="0 0 68 80"><style>.st1{display:inline}</style><switch><g id="ZZ-Elements"><g id="Elements_x2F_Category-Cards" transform="translate(-68 -694)"><g id="School-Stories" transform="translate(46 652)"><g id="Category---Activity-Copy"><g id="Group" transform="translate(16 42)"><g id="Page-1"><path d="M23.1 48.7c1.4 0 2.7-.5 3.7-1.4.8-.8 1.4-1.8 1.5-2.8h-2.6c-.3 1-1.4 1.7-2.6 1.7s-2.3-.7-2.6-1.7H18c.2 2.4 2.5 4.2 5.1 4.2zM12.3 33c0 1.1.6 1.6 1.1 1.6.5 0 1.1-.5 1.1-1.6s-.6-1.6-1.1-1.6c-.6.1-1.1.6-1.1 1.6zM32.9 31.5c-.6 0-1.1.7-1.1 1.6 0 .9.5 1.6 1.1 1.6.6 0 1.1-.7 1.1-1.6 0-.9-.5-1.6-1.1-1.6zM23.1 35.1c-.7 0-1.3.6-1.3 1.3V39c0 .7.6 1.3 1.3 1.3s1.3-.6 1.3-1.3v-2.6c0-.7-.6-1.3-1.3-1.3z" transform="translate(6)"/><path d="M64.4 79.1h2.7V61.3c0-.2-.1-4.9-8.8-4.9-3 0-5.3.6-6.7 1.9l-.3.3-.3-.3c-1.5-1.3-3.9-1.9-7.2-1.9-2.7 0-4.7.5-6.2 1.5l-.2.1-.3-.1c-1.9-1-4-1.8-6.1-2.4l-.4-.1V53l.3-.1c7.2-3.3 11.6-11 11.6-20 0-9.1-4.6-17.3-11.6-21l-.4-.2.1-.4c.3-.8.4-1.6.4-2.4C31 4.5 27.4 1 23.1 1c-4.4 0-7.9 3.6-7.9 7.9 0 .8.1 1.6.4 2.4l.1.4-.4.2c-7.1 3.7-11.6 11.9-11.6 21C3.7 41.8 8 49.4 15 52.8l.3.1v2.6l-.3.1c-6.8 2-14 6.4-14 13v7.9h2.5v-7.9c0-4.9 5.9-8.5 11.5-10.3l.5-.2.1.5c.8 2.7 3 4.7 5.8 5.3l.4.1v12.1h2.5V63.9l.4-.1c2.7-.6 4.8-2.7 5.5-5.3l.1-.5.5.2c1.5.5 3.1 1.1 4.5 1.8l.4.2-.1.4c-.1.4-.1.7-.1.8v17.9l2.7-.1c.5-.9 2.1-1.9 5.8-1.9 3.5 0 5.2.9 5.8 1.9h.2v.1l2.7-.1c.5-.9 2.1-1.9 5.8-1.9 3.6-.1 5.3.8 5.9 1.8zM23.1 3.4c3 0 5.4 2.4 5.4 5.4 0 .5-.1.9-.2 1.4l-.1.5-.5-.1c-3-.9-6.1-.9-9.1 0l-.5.1-.1-.5c-.1-.5-.2-.9-.2-1.4 0-3 2.4-5.4 5.3-5.4zm-14.9 20c2.9-6.8 8.6-11 14.9-11 6.3 0 12 4.2 14.9 11l.2.5-.5.2c-1.3.6-2.6.9-4 .9-4.3 0-8.1-2.7-9.4-6.8-.2-.5-.7-.9-1.2-.9s-1 .3-1.2.9c-1.4 4.1-5.2 6.8-9.4 6.8-1.4 0-2.8-.3-4-.9l-.5-.2.2-.5zm19.9 33c0 2.8-2.3 5.1-5.1 5.1s-5.1-2.3-5.1-5.1v-2.6l.6.2c2.9.7 6 .8 8.9.1l.6-.1v2.4zm-5-4.4c-9.6 0-16.8-8.2-16.8-19.2 0-2 .2-4 .7-5.9l.1-.6.5.2c1.5.6 3.1 1 4.8 1 4.1 0 7.9-2 10.2-5.3l.4-.6.4.6c2.3 3.3 6.2 5.3 10.2 5.3 1.6 0 3.3-.3 4.8-1l.5-.2.1.6c.5 1.9.7 3.9.7 6C40 43.7 32.7 52 23.1 52zm26.3 23.6c-1.4-.6-3.2-.9-5.3-.9-2.1 0-3.9.3-5.3.9l-.7.3V61.3c.2-1.2 1.7-2.4 5.7-2.4 5.6 0 6.2 2.1 6.3 2.3v14.6l-.7-.2zm3.9-.1l-.7.3V61.3c.2-1.2 1.7-2.4 5.7-2.4 5.6 0 6.2 2.1 6.3 2.3v14.6l-.7-.3c-1.4-.6-3.2-.9-5.3-.9-2.1.1-3.9.3-5.3.9z" transform="translate(6)"/></g></g></g></g></g></g></switch></svg>