<svg width="24" height="24" viewBox="0 0 24 24" xmlns="http://www.w3.org/2000/svg"><title>share</title><g fill="none" fill-rule="evenodd"><path d="M0 0h24v24H0z"/><path d="M8.8 12c0 .159-.015.314-.045.465l7.172 3.414a2.4 2.4 0 1 1-.71 1.434l-7.283-3.467a2.4 2.4 0 1 1 0-3.691l7.283-3.467a2.4 2.4 0 1 1 .71 1.434l-7.172 3.414c.03.15.045.305.045.464zm-2.4.8a.8.8 0 1 0 0-1.6.8.8 0 0 0 0 1.6zm11.2-5.6a.8.8 0 1 0 0-1.6.8.8 0 0 0 0 1.6zm0 11.2a.8.8 0 1 0 0-1.6.8.8 0 0 0 0 1.6z" fill-rule="nonzero" fill="currentColor"/></g></svg>