<svg xmlns="http://www.w3.org/2000/svg" width="24" height="24" viewBox="0 0 24 24"><path d="M6.807 19.08c0 1.593-3.115 1.593-3.115 0v-8.723c0-1.246 3.115-1.177 3.115 0v8.723zm9.97 1.177c1.939-.069 1.869-1.8.693-1.8h-.9c-.346 0-.485-.484 0-.484h1.73c.9-.07 1.524-2.285 0-2.285h-1.176c-.485 0-.485-.554 0-.554h1.523c1.454 0 1.868-2.354.207-2.354h-1.246c-.554 0-.484-.554 0-.554h1.593c1.523 0 1.523-2.215 0-2.215h-6.023c.554-1.523.969-2.423.484-3.877-.761-2.631-2.839-3.393-2.493-.485.208 2.285-1.73 3.739-3.668 4.708v8.723c2.768 1.316 6.16 1.385 9.276 1.177z"/></svg>