<svg width="24" height="24" viewBox="0 0 24 24" xmlns="http://www.w3.org/2000/svg"><title>translate</title><g fill="currentColor" fill-rule="evenodd"><path d="M5.36 10.193l-.655 1.31a.9.9 0 1 1-1.61-.806l3.6-7.2a.9.9 0 0 1 1.61 0l3.6 7.2a.9.9 0 1 1-1.61.805l-.653-1.306-4.282-.003zm3.382-1.797L7.5 5.914 6.26 8.394l2.482.002z" fill-rule="nonzero"/><path d="M20.904 13.141c-.058.438-.105.566-.423.746-.186.105-.346.092-.437.092h-1.733v6.426c-.125.478-.397.714-.816.71-.383-.005-.79-.34-.79-.737V17.27c-.857.061-1.509.061-1.957 0-.043-.006.24.531.155 1.115-.045.321-.167.702-.316.982-.05.094-.647.88-1.298 1.072-.418.122-.85.2-1.353.092-.544-.117-.882-.355-.933-.375-.089-.034-1.216-.783-1.473-1.526-.118-.34.125-.76.438-.894.277-.117.495-.078.73.025.233.102.7.87 1.29 1.111.241.1.452.139.615.111a.837.837 0 0 0 .448-.243c.433-.43.205-.863.175-.939-.132-.327-.78-.832-1.945-1.514.707-.434 1.172-.746 1.395-.935.445-.38.64-.724.663-.97.036-.386-.162-.536-.422-.688-.26-.152-.562-.092-.608-.091-.29.004-.866.509-1.054.703-.272.282-.94.235-1.148-.14-.23-.41-.185-.732 0-.943.634-.727 1.326-1.014 1.603-1.107.813-.274 1.646-.006 1.995.193 1.317.755 1.323 1.91 1.133 2.634-.108.411-.286.681-.285.681.643.116 1.36.128 2.152.037v-1.683a4.576 4.576 0 0 0-.32 0c-.595.02-.805-.246-.893-.424-.12-.242-.102-.54-.021-.697.16-.307.41-.458.544-.458 1.163 0 1.518-.013 2.046-.018 1.004-.009 1.74 0 2.133.018.23.01.396.114.526.274a.676.676 0 0 1 .165.33c.008.04.026.086.019.137z"/></g></svg>