<svg width="24" height="24" viewBox="0 0 24 24" xmlns="http://www.w3.org/2000/svg"><g fill="none" fill-rule="evenodd"><path d="M0 0h24v24H0z"/><path d="M21.999 5.918a.414.414 0 0 0-.497-.089c-.104.054-.3.124-.53.193.291-.39.527-.827.63-1.22a.415.415 0 1 0-.64-.448c-.224.158-1.311.631-1.998.784-1.553-1.364-3.36-1.505-5.238-.405-1.527.894-1.859 2.712-1.794 3.82-3.495-.337-5.667-2.189-6.89-3.721a.424.424 0 0 0-.353-.156.418.418 0 0 0-.33.203c-.578.98-.738 2.062-.461 3.131.151.583.415 1.098.722 1.514a2.262 2.262 0 0 1-.423-.271.416.416 0 0 0-.677.323c0 1.836 1.145 3.06 2.214 3.7a3.095 3.095 0 0 1-.535-.114.415.415 0 0 0-.5.57c.6 1.332 1.738 2.249 3.146 2.581-1.23.725-2.875 1.08-4.382.905a.417.417 0 0 0-.252.777c2.287 1.288 4.354 1.748 6.14 1.748 2.6 0 4.605-.974 5.827-1.788 3.292-2.192 5.344-6.127 5.058-9.647.527-.391 1.317-1.113 1.806-1.889a.413.413 0 0 0-.043-.501z" fill="currentColor" fill-rule="nonzero"/></g></svg>