<svg width="24" height="24" viewBox="0 0 24 24" xmlns="http://www.w3.org/2000/svg"><title>up-down</title><path d="M13.398 7.919a.865.865 0 1 1-1.223-1.223l2.444-2.444c.17-.17.39-.254.612-.252.221 0 .442.084.613.255l2.441 2.44a.865.865 0 1 1-1.223 1.223l-.983-.966v10.872a.852.852 0 0 1-.849.865.877.877 0 0 1-.88-.865l.015-10.872-.967.967zM9.16 5.717a.85.85 0 0 0-.849-.865.877.877 0 0 0-.88.865V16.62l-.952-.968a.865.865 0 1 0-1.223 1.223L7.7 19.32c.17.17.39.254.612.252a.862.862 0 0 0 .613-.254l2.441-2.441a.865.865 0 1 0-1.223-1.223l-.967.967L9.16 5.717z" fill-rule="nonzero" fill="currentColor"/></svg>
