<svg width="24" height="24" viewBox="0 0 24 24" xmlns="http://www.w3.org/2000/svg"><title>user</title><g fill="none" fill-rule="evenodd"><path d="M0 0h24v24H0z"/><path d="M5.6 15.992v1.085c.28.171 2.517 1.32 6.4 1.32 3.883 0 6.12-1.148 6.4-1.318v-1.087c0-1.373-3.046-2.44-3.263-2.522-.681 1.223-1.688 2.13-3.137 2.13-1.448 0-2.455-.906-3.136-2.128-.215.08-3.264 1.145-3.264 2.52zm2-7.85C7.6 5.856 9.57 4 12 4c2.43 0 4.4 1.855 4.4 4.143 0 .97-.17 2.46-.63 3.854 1.603.612 4.23 1.604 4.23 3.995v1.606C20 18.482 16.548 20 12 20s-8-1.52-8-2.402v-1.606c0-2.4 2.628-3.382 4.23-3.993a13.143 13.143 0 0 1-.63-3.856zM12 14c1.576 0 2.8-2.894 2.8-5.857C14.8 6.76 13.567 5.6 12 5.6c-1.567 0-2.8 1.16-2.8 2.543C9.2 11.106 10.424 14 12 14z" fill="currentColor" fill-rule="nonzero"/></g></svg>