<svg width="24" height="24" viewBox="0 0 24 24" xmlns="http://www.w3.org/2000/svg"><g fill="none" fill-rule="evenodd"><path d="M0 0h24v24H0z"/><path d="M19.282 5.51l-4.398-.383a33.551 33.551 0 0 0-5.83 0l-4.398.383A2.897 2.897 0 0 0 2 8.416v7.916a2.897 2.897 0 0 0 2.656 2.906l4.398.383a33.307 33.307 0 0 0 5.83 0l4.398-.383a2.898 2.898 0 0 0 2.656-2.906V8.416a2.897 2.897 0 0 0-2.656-2.906zM9.477 8.624a.416.416 0 0 1 .64-.351l5.814 3.75a.416.416 0 0 1 .001.7l-5.815 3.75a.42.42 0 0 1-.424.016.414.414 0 0 1-.216-.365v-7.5z" fill="currentColor" fill-rule="nonzero"/></g></svg>