<svg xmlns="http://www.w3.org/2000/svg" width="97" height="79" viewBox="0 0 97 79"><g fill="none" fill-rule="evenodd"><path d="M-11-21h120V99H-11z"/><g fill="#555D67"><path d="M90.637 49.415c-5.494-2.255-14.735-7.95-19.885-13.58 13.548-12.784 3.014-24.569 3.014-24.569s-4.506 8.786-13.6 9.45C59.754 20.044 49.106.01 36.139.01c-15.491 0-19.901 18.686-20.737 27.895C8.33 27.56 4.786 26.674.366 22.552.521 32.37 5.291 43.722 15.73 45.36c.147 1.353.317 2.714.527 4.098C18.729 66.298 26.628 79 34.65 79c1.836 0 5.242-.768 7.378-5.863.894-2.132 2.152-2.935 3.9-2.484.914.241 9.597 3.283 14.537 3.323 5.665.047 9.399-2.951 10.811-8.548.696-2.801 2.168-3.68 4.399-3.35 11.875 1.76 14.787.968 18.848-3.02 1.737-1.7 2.603-3.381 2.24-5.047-1.605-2.046-3.647-3.578-6.126-4.596zM67.94 64.581c-1.033 4.114-3.343 5.926-7.473 5.95-4.608.027-12.678-2.951-13.679-3.212-3.433-.886-6.388.783-7.935 4.485-.716 1.713-2.021 3.75-4.2 3.75-4.479 0-12.327-8.453-14.997-26.598a112.995 112.995 0 0 1-.827-7.18c-9.47-.502-12.733-7.294-14.059-12.135 3.762 1.523 11.432 1.728 13.818 1.705.542-12.86 5.605-27.9 17.552-27.9 10.941 0 21.459 20.384 22.543 22.08 6.009-.842 13.485-4.002 14.806-7.567 1.171 3.34.807 11.096-7.488 17.647 4.597 5.475 10.38 10.664 18.168 14.565 1.955.981 7.366 2.935 9.213 4.573-2.95 5.11-6.305 5.364-16.692 3.892-4.684-.66-7.753 1.946-8.75 5.945z"/><path d="M34.168 36.446c-2.542.285-4.74-2.166-4.8-5.078-.064-3.08 1.584-5.022 4.276-5.026 2.551-.005 4.769 2.419 4.724 5.266-.045 2.584-1.229 4.502-4.2 4.838zm-.126-2.313c1.5-.184 2.098-1.236 2.12-2.653.024-1.561-1.096-2.89-2.385-2.888-1.36.003-2.191 1.067-2.159 2.757.03 1.596 1.14 2.94 2.424 2.784zM30.85 16.08c-.407-.272-1.008-.185-1.23.25-.597 1.179-2.175 3.354-2.646 3.354-.415 0-1.895-1.962-2.793-3.31a.808.808 0 0 0-.807-.337.816.816 0 0 0-.668.941c.447 2.43 2.037 5.368 4.264 5.368 2.073 0 3.715-2.812 4.264-5.36a.887.887 0 0 0-.383-.905zm12.223.06c-.407-.273-1.008-.186-1.23.25-.597 1.178-2.175 3.354-2.646 3.354-.415 0-1.895-1.962-2.793-3.311a.808.808 0 0 0-.807-.336.816.816 0 0 0-.668.941c.447 2.429 2.037 5.368 4.264 5.368 2.073 0 3.714-2.812 4.264-5.36a.88.88 0 0 0-.384-.906z"/></g></g></svg>