<svg xmlns="http://www.w3.org/2000/svg" width="99" height="100" viewBox="0 0 99 100"><g fill="none" fill-rule="evenodd"><path fill="#000" d="M98.237 38.273l-7.736-4.64c-.154-.156-.464-.156-.773-.156H64.667c-.62-1.856-2.321-3.094-4.332-3.094-.774 0-1.547.155-2.32.62-.774-1.238-2.167-2.167-3.868-2.167-.619 0-1.238.155-1.702.31-.619-2.011-2.32-3.404-4.486-3.404s-3.868 1.393-4.487 3.404c-.464-.155-1.083-.31-1.701-.31-2.63 0-4.642 2.011-4.642 4.641H6.19c-3.405 0-6.19 2.785-6.19 6.189 0 3.403 2.784 6.188 6.188 6.188H30.94v4.95l3.249 6.498 4.486 6.033v4.487c-.928.464-1.547 1.547-1.547 2.63v29.393h3.094V70.607h18.565V100h3.094V70.607c0-1.083-.619-2.166-1.547-2.63v-1.702l4.64-15.316v-5.105h24.753c.31 0 .62 0 .774-.154l7.735-4.642c.464-.309.774-.773.774-1.392 0-.619-.31-1.083-.774-1.392zM37.129 42.76H18.564v-6.19H37.13v6.189zm-21.659 0h-3.094v-6.19h3.094v6.189zM3.094 39.666a3.103 3.103 0 0 1 3.094-3.095h3.094v6.189H6.188a3.103 3.103 0 0 1-3.094-3.094zM61.881 50.34l-4.64 15.316v2.01H41.77v-5.104l-4.796-6.498-2.94-5.879v-4.331h3.095V47.4h3.094V33.478c0-.928.618-1.547 1.547-1.547.928 0 1.547.619 1.547 1.547v3.094h3.094v-6.188c0-.928.619-1.547 1.547-1.547.928 0 1.547.619 1.547 1.547v6.188h3.094v-3.094c0-.928.619-1.547 1.547-1.547.928 0 1.547.619 1.547 1.547v3.094h3.094v-1.547c0-.928.619-1.547 1.547-1.547.928 0 1.547.619 1.547 1.547V50.34zm3.094-13.769h15.47v6.189h-15.47v-6.19zm24.288 6.189H83.54v-6.19h5.724l5.106 3.095-5.106 3.094z"/><path fill="#BDA38B" d="M89.263 42.76H83.54v-6.19h5.724l5.106 3.095z"/><path fill="#D0021B" d="M3.094 39.666a3.103 3.103 0 0 1 3.094-3.095h3.094v6.189H6.188a3.103 3.103 0 0 1-3.094-3.094z"/><path fill="#D9D9D9" d="M15.47 42.76h-3.094v-6.19h3.094z"/><path fill="#F8DC1C" d="M37.129 42.76H18.564v-6.19H37.13zm27.846-6.189h15.47v6.189h-15.47z"/><path fill="#DCA16C" d="M61.881 50.34l-4.64 15.316v2.01H41.77v-5.104l-4.796-6.498-2.94-5.879v-4.331h3.095V47.4h3.094V33.478c0-.928.618-1.547 1.547-1.547.928 0 1.547.619 1.547 1.547v3.094h3.094v-6.188c0-.928.619-1.547 1.547-1.547.928 0 1.547.619 1.547 1.547v6.188h3.094v-3.094c0-.928.619-1.547 1.547-1.547.928 0 1.547.619 1.547 1.547v3.094h3.094v-1.547c0-.928.619-1.547 1.547-1.547.928 0 1.547.619 1.547 1.547V50.34z"/><path fill="#000" d="M43.317 76.795h3.094v-3.094h-3.094zM9.592 48.639l-3.094.309c1.392 13.305 9.127 25.371 20.575 32.333l1.547-2.63C17.946 72.153 10.829 61.015 9.59 48.639zm61.107 29.857l1.702 2.63C83.848 74.01 91.12 62.407 92.667 49.102l-3.094-.31C88.181 61.17 81.22 72 70.7 78.497h-.001zm-7.58-72.091a39.691 39.691 0 0 1 24.133 24.133l2.94-1.083C85.86 17.388 76.269 7.797 64.202 3.465 41.77-4.579 16.863 7.178 8.818 29.61l2.939 1.083C19.183 9.808 42.389-1.021 63.118 6.405z"/></g></svg>