<svg xmlns="http://www.w3.org/2000/svg" width="104" height="120" viewBox="0 0 104 120"><g fill="none" fill-rule="evenodd"><path fill="#000" d="M80.652 15.568c-1.778-4.894-5.34-8.746-9.933-10.825C66.422 2.67 61.53 2.37 57.08 3.707l-.74-1.93c-.296-.74-1.188-1.186-1.93-.891L9.046 17.346c-1.928.741-2.814 2.815-2.224 4.743l13.193 36.03c.591 1.482 1.929 2.374 3.411 2.374.446 0 .892 0 1.188-.15l11.565-4.153 23.874 11.12c0 .741.15 1.332.446 2.073.74 2.073 2.224 3.707 4.297 4.599l.892.446c.15.15.446.15.59.15.151 0 .296 0 .446-.15.296-.151.742-.446.892-.742l7.118-15.272c.15-.296.15-.742 0-1.188-.15-.295-.446-.74-.741-.891l-.892-.446a8.211 8.211 0 0 0-6.226-.296c-.446.15-.741.296-1.037.591l-3.567-9.631 7.708-2.815c.296-.15.742-.446.892-.741.15-.296.15-.742 0-1.187l-.741-1.93c9.342-4.146 13.934-14.675 10.523-24.311v-.001zm-56.93 41.808c-.295.15-.741 0-.892-.446L9.637 20.9c-.15-.294 0-.74.446-.891L43.147 7.997l.446.296c2.52 1.928 4.743 3.857 6.521 8.305 1.633 4.448 1.037 7.413.446 10.529-.59 3.411-1.332 6.822.59 12.156 1.188 3.116 2.52 5.039 4.003 6.672l-7.118 2.67-24.313 8.751zM59.6 47.444l2.67 7.413-9.932-4.599 7.262-2.814zm5.34 13.639c.59-1.332 1.633-2.224 2.965-2.67a4.893 4.893 0 0 1 3.556 0l-5.78 12.602c-1.036-.59-1.778-1.633-2.224-2.67-.446-1.332-.446-2.67.15-4.002l1.333-3.26zm-1.929-2.67c-.295.446-.59.892-.741 1.332l-1.483 3.26c-.15.296-.295.742-.446 1.037l-20.31-9.486 8.154-2.966 14.826 6.823zm-4.894-13.489c-1.482-1.332-3.115-3.26-4.297-6.52-1.633-4.449-1.036-7.414-.446-10.53.591-3.411 1.332-6.822-.59-12.156-1.634-4.599-4.002-6.967-6.377-8.896l7.564-2.815L67.61 41.368l-9.493 3.556zm10.975-7.859L57.972 6.52c8.155-2.374 16.9 1.929 19.865 10.083 2.965 8.01-.892 16.905-8.745 20.462z"/><path fill="#D9D9D9" d="M64.94 61.083c.59-1.332 1.633-2.224 2.965-2.67a4.893 4.893 0 0 1 3.556 0l-5.78 12.602c-1.036-.59-1.778-1.633-2.224-2.67-.446-1.332-.446-2.67.15-4.002l1.333-3.26zm-1.929-2.67c-.295.446-.59.892-.741 1.332l-1.483 3.26c-.15.296-.295.742-.446 1.037l-20.31-9.486 8.154-2.966 14.826 6.823z"/><path fill="#C3E5FF" d="M23.722 57.376c-.295.15-.741 0-.892-.446L9.637 20.9c-.15-.294 0-.74.446-.891L43.147 7.997l.446.296c2.52 1.928 4.743 3.857 6.521 8.305 1.633 4.448 1.037 7.413.446 10.529-.59 3.411-1.332 6.822.59 12.156 1.188 3.116 2.52 5.039 4.003 6.672l-7.118 2.67-24.313 8.751z"/><path fill="#000" d="M.59 117.574c0 .892.59 1.482 1.483 1.482H102.3c.892 0 1.483-.59 1.483-1.482s-.591-1.483-1.483-1.483H80.954v-4.152c0-.742.296-5.039 4.894-8.6 2.224-1.779 3.411-3.707 3.411-5.78 0-1.037-.295-2.074-.74-2.67 1.186-.893 1.928-2.52 1.928-4.298 0-1.633-.591-3.116-1.778-4.152.15-.591.295-1.037.295-1.634 0-1.928-.892-3.556-2.224-4.448v-.445c0-2.224-1.332-4.153-3.116-4.894-.446-2.375-2.224-4.153-4.448-4.153s-4.002 1.778-4.447 4.153c-1.93.59-3.261 2.67-3.261 5.038v.742c-1.037.891-1.633 2.374-1.633 4.001 0 .591.15 1.188.295 1.634-1.037.892-1.778 2.519-1.778 4.152 0 1.778.892 3.411 2.073 4.297a5.117 5.117 0 0 0-.74 2.67c-.001 2.074 1.186 4.002 3.41 5.78 4.298 3.411 4.743 7.564 4.743 8.45v4.303l-23.722.006v-4.152c0-.742.296-5.04 4.894-8.601 2.224-1.778 3.412-3.707 3.412-5.78 0-1.037-.296-2.073-.742-2.67 1.188-.892 1.929-2.52 1.929-4.297 0-1.633-.59-3.116-1.778-4.153.15-.59.295-1.036.295-1.633 0-1.928-.892-3.556-2.224-4.448v-.446c0-2.224-1.332-4.152-3.116-4.893-.446-2.375-2.224-4.153-4.447-4.153-2.224 0-4.002 1.778-4.448 4.153-1.929.59-3.26 2.67-3.26 5.038v.741c-1.038.892-1.634 2.375-1.634 4.002 0 .591.15 1.188.295 1.634-1.036.891-1.778 2.519-1.778 4.152 0 1.778.892 3.411 2.074 4.297a5.117 5.117 0 0 0-.742 2.67c0 2.074 1.187 4.002 3.411 5.78 4.298 3.411 4.744 7.564 4.744 8.45v4.303l-23.722.006v-4.152c0-.742.295-5.04 4.893-8.601 2.224-1.778 3.412-3.707 3.412-5.78 0-1.037-.296-2.073-.742-2.67 1.188-.892 1.929-2.52 1.929-4.297 0-1.633-.59-3.116-1.778-4.153.15-.59.295-1.036.295-1.633 0-1.929-.891-3.556-2.224-4.448v-.446c0-2.224-1.332-4.152-3.115-4.894-.446-2.374-2.224-4.152-4.448-4.152s-4.002 1.778-4.448 4.152c-1.929.591-3.26 2.67-3.26 5.039v.741c-1.037.892-1.634 2.375-1.634 4.002 0 .59.15 1.187.295 1.633-1.036.892-1.778 2.52-1.778 4.153 0 1.778.892 3.411 2.074 4.297a5.117 5.117 0 0 0-.742 2.67c0 2.073 1.188 4.002 3.412 5.78 4.447 3.411 4.743 7.564 4.743 8.45v4.303H1.923c-.735.006-1.332.747-1.332 1.488zm74.578-16.46c-1.037-.742-2.224-2.074-2.224-3.412 0-1.332 1.036-2.224 1.036-2.224.446-.446.742-1.036.446-1.633-.295-.59-.741-1.037-1.332-1.037-.892 0-1.482-1.036-1.482-2.223 0-1.188.59-1.93 1.187-2.074.446-.15.741-.446.892-.892.15-.446.15-.892-.15-1.332a2.521 2.521 0 0 1-.447-1.482c0-1.037.591-1.778 1.037-2.074.741-.295 1.037-1.187.741-1.778-.15-.295-.15-.59-.15-.891 0-1.188.741-2.224 1.633-2.224.446 0 .892-.151 1.187-.446.296-.296.446-.742.446-1.188v-.15c0-1.187.741-2.224 1.483-2.224.741 0 1.482 1.037 1.482 2.224v.15c0 .446.151.742.446 1.037.296.295.742.446 1.188.446.74 0 1.482 1.037 1.482 2.224 0 .295 0 .59-.15.892-.15.446 0 .741.15 1.187.15.295.591.59.892.741.59.151 1.332.892 1.332 2.224 0 .591-.15 1.037-.446 1.483-.295.446-.295.892-.15 1.332.15.446.446.741.892.892.59.15 1.187 1.037 1.187 2.073 0 1.187-.742 2.224-1.483 2.224-.892 0-1.482.59-1.482 1.483 0 .59.295 1.187.891 1.332.296.295.892 1.036.892 1.928 0 1.332-1.187 2.52-2.224 3.412-1.332 1.036-2.224 2.073-3.116 3.116l-.004-24.32c0-.891-.591-1.482-1.483-1.482-.892 0-1.483.59-1.483 1.482v24.169c-1.036-1.037-1.928-1.929-3.115-2.965v-.001zm-26.983 0c-1.036-.742-2.224-2.074-2.224-3.412 0-1.332 1.037-2.224 1.037-2.224.446-.446.741-1.036.446-1.633-.295-.59-.741-1.037-1.332-1.037-.892 0-1.483-1.036-1.483-2.223 0-1.188.591-1.93 1.188-2.074.446-.15.74-.446.891-.892.151-.446.151-.892-.15-1.332a2.521 2.521 0 0 1-.446-1.482c0-1.037.59-1.778 1.037-2.074.741-.295 1.036-1.187.741-1.778-.15-.295-.15-.59-.15-.891 0-1.188.74-2.224 1.633-2.224.446 0 .892-.151 1.187-.446.295-.296.446-.742.446-1.188v-.15c0-1.187.741-2.224 1.482-2.224.742 0 1.483 1.037 1.483 2.374 0 .446.15.742.446 1.188.295.295.741.446 1.187.446.742 0 1.483 1.036 1.483 2.224 0 .295 0 .59-.15.891-.151.446 0 .742.15 1.188.15.295.59.59.892.741.59.15 1.332.892 1.332 2.224 0 .59-.15 1.037-.446 1.483-.295.446-.295.891-.15 1.332.15.446.445.741.891.892.591.15 1.187 1.036 1.187 2.073 0 1.187-.74 2.224-1.482 2.224-.892 0-1.483.59-1.483 1.482 0 .591.296 1.188.892 1.332.295.296.892 1.037.892 1.929 0 1.332-1.187 2.52-2.224 3.411-1.332 1.037-2.224 2.074-3.116 3.116l-.006-24.47c0-.891-.59-1.482-1.482-1.482s-1.483.591-1.483 1.483v24.168a20.313 20.313 0 0 0-3.116-2.965zm-26.838 0c-1.037-.742-2.224-2.074-2.224-3.412 0-1.332 1.037-2.224 1.037-2.224.446-.446.74-1.036.446-1.633-.296-.59-.742-1.037-1.333-1.037-.891 0-1.482-1.036-1.482-2.223 0-1.188.59-1.93 1.187-2.074.446-.15.741-.446.892-.892.15-.446.15-.892-.15-1.332a2.521 2.521 0 0 1-.447-1.482c0-1.037.591-1.778 1.037-2.074.741-.295 1.037-1.187.741-1.778-.15-.295-.15-.59-.15-.891 0-1.188.741-2.224 1.633-2.224.446 0 .892-.151 1.187-.446.296-.296.446-.742.446-1.188v-.15c0-1.187.742-2.224 1.483-2.224.892 0 1.483 1.037 1.483 2.224v.15c0 .446.15.742.446 1.037.295.295.74.446 1.187.446.741 0 1.482 1.037 1.482 2.224 0 .295 0 .59-.15.892-.15.446 0 .741.15 1.187.151.295.591.59.892.741.591.151 1.332.892 1.332 2.224 0 .591-.15 1.037-.446 1.483-.295.446-.295.892-.15 1.332.15.446.446.741.892.892.59.15 1.187 1.037 1.187 2.073 0 1.187-.741 2.224-1.483 2.224-.892 0-1.482.59-1.482 1.483 0 .59.295 1.187.892 1.332.295.295.892 1.036.892 1.928 0 1.332-1.188 2.52-2.224 3.412-1.332 1.036-2.224 2.073-3.116 3.116l-.006-24.319c0-.891-.59-1.482-1.483-1.482-.892 0-1.482.59-1.482 1.482v24.169c-.892-1.037-1.929-1.929-3.116-2.965v-.001z"/><path fill="#BCE691" d="M75.168 101.114c-1.037-.742-2.224-2.074-2.224-3.412 0-1.332 1.036-2.224 1.036-2.224.446-.446.742-1.036.446-1.633-.295-.59-.741-1.037-1.332-1.037-.892 0-1.482-1.036-1.482-2.223 0-1.188.59-1.93 1.187-2.074.446-.15.741-.446.892-.892.15-.446.15-.892-.15-1.332a2.521 2.521 0 0 1-.447-1.482c0-1.037.591-1.778 1.037-2.074.741-.295 1.037-1.187.741-1.778-.15-.295-.15-.59-.15-.891 0-1.188.741-2.224 1.633-2.224.446 0 .892-.151 1.187-.446.296-.296.446-.742.446-1.188v-.15c0-1.187.741-2.224 1.483-2.224.741 0 1.482 1.037 1.482 2.224v.15c0 .446.151.742.446 1.037.296.295.742.446 1.188.446.74 0 1.482 1.037 1.482 2.224 0 .295 0 .59-.15.892-.15.446 0 .741.15 1.187.15.295.591.59.892.741.59.151 1.332.892 1.332 2.224 0 .591-.15 1.037-.446 1.483-.295.446-.295.892-.15 1.332.15.446.446.741.892.892.59.15 1.187 1.037 1.187 2.073 0 1.187-.742 2.224-1.483 2.224-.892 0-1.482.59-1.482 1.483 0 .59.295 1.187.891 1.332.296.295.892 1.036.892 1.928 0 1.332-1.187 2.52-2.224 3.412-1.332 1.036-2.224 2.073-3.116 3.116l-.004-24.32c0-.891-.591-1.482-1.483-1.482-.892 0-1.483.59-1.483 1.482v24.169c-1.036-1.037-1.928-1.929-3.115-2.965v-.001zm-26.983 0c-1.036-.742-2.224-2.074-2.224-3.412 0-1.332 1.037-2.224 1.037-2.224.446-.446.741-1.036.446-1.633-.295-.59-.741-1.037-1.332-1.037-.892 0-1.483-1.036-1.483-2.223 0-1.188.591-1.93 1.188-2.074.446-.15.74-.446.891-.892.151-.446.151-.892-.15-1.332a2.521 2.521 0 0 1-.446-1.482c0-1.037.59-1.778 1.037-2.074.741-.295 1.036-1.187.741-1.778-.15-.295-.15-.59-.15-.891 0-1.188.74-2.224 1.633-2.224.446 0 .892-.151 1.187-.446.295-.296.446-.742.446-1.188v-.15c0-1.187.741-2.224 1.482-2.224.742 0 1.483 1.037 1.483 2.374 0 .446.15.742.446 1.188.295.295.741.446 1.187.446.742 0 1.483 1.036 1.483 2.224 0 .295 0 .59-.15.891-.151.446 0 .742.15 1.188.15.295.59.59.892.741.59.15 1.332.892 1.332 2.224 0 .59-.15 1.037-.446 1.483-.295.446-.295.891-.15 1.332.15.446.445.741.891.892.591.15 1.187 1.036 1.187 2.073 0 1.187-.74 2.224-1.482 2.224-.892 0-1.483.59-1.483 1.482 0 .591.296 1.188.892 1.332.295.296.892 1.037.892 1.929 0 1.332-1.187 2.52-2.224 3.411-1.332 1.037-2.224 2.074-3.116 3.116l-.006-24.47c0-.891-.59-1.482-1.482-1.482s-1.483.591-1.483 1.483v24.168a20.313 20.313 0 0 0-3.116-2.965zm-26.838 0c-1.037-.742-2.224-2.074-2.224-3.412 0-1.332 1.037-2.224 1.037-2.224.446-.446.74-1.036.446-1.633-.296-.59-.742-1.037-1.333-1.037-.891 0-1.482-1.036-1.482-2.223 0-1.188.59-1.93 1.187-2.074.446-.15.741-.446.892-.892.15-.446.15-.892-.15-1.332a2.521 2.521 0 0 1-.447-1.482c0-1.037.591-1.778 1.037-2.074.741-.295 1.037-1.187.741-1.778-.15-.295-.15-.59-.15-.891 0-1.188.741-2.224 1.633-2.224.446 0 .892-.151 1.187-.446.296-.296.446-.742.446-1.188v-.15c0-1.187.742-2.224 1.483-2.224.892 0 1.483 1.037 1.483 2.224v.15c0 .446.15.742.446 1.037.295.295.74.446 1.187.446.741 0 1.482 1.037 1.482 2.224 0 .295 0 .59-.15.892-.15.446 0 .741.15 1.187.151.295.591.59.892.741.591.151 1.332.892 1.332 2.224 0 .591-.15 1.037-.446 1.483-.295.446-.295.892-.15 1.332.15.446.446.741.892.892.59.15 1.187 1.037 1.187 2.073 0 1.187-.741 2.224-1.483 2.224-.892 0-1.482.59-1.482 1.483 0 .59.295 1.187.892 1.332.295.295.892 1.036.892 1.928 0 1.332-1.188 2.52-2.224 3.412-1.332 1.036-2.224 2.073-3.116 3.116l-.006-24.319c0-.891-.59-1.482-1.483-1.482-.892 0-1.482.59-1.482 1.482v24.169c-.892-1.037-1.929-1.929-3.116-2.965v-.001z"/></g></svg>